<?xml version="1.0" encoding="utf-8"?>
<!-- Generator: Adobe Illustrator 27.5.0, SVG Export Plug-In . SVG Version: 6.00 Build 0)  -->
<svg version="1.1" id="Layer_1" xmlns="http://www.w3.org/2000/svg" xmlns:xlink="http://www.w3.org/1999/xlink" x="0px" y="0px"
	 viewBox="0 0 915.1 360.8" style="enable-background:new 0 0 915.1 360.8;" xml:space="preserve">
<style type="text/css">
	.st0{display:none;fill:none;stroke:#000000;stroke-linecap:round;stroke-linejoin:round;stroke-miterlimit:11.3386;}
	.st1{display:none;enable-background:new    ;}
	.st2{font-family:'ArialRoundedMTBold';}
	.st3{font-size:6px;}
	.st4{font-family:'Consolas';}
	.st5{font-family:'MingLiU';}
	.st6{font-size:7px;}
	.st7{font-size:90px;}
	.st8{letter-spacing:-12;}
	.st9{display:none;}
	.st10{display:inline;fill:none;stroke:#000000;stroke-linecap:round;stroke-linejoin:round;stroke-miterlimit:11.3386;}
	.st11{fill:none;stroke:#000000;stroke-linecap:round;stroke-linejoin:round;stroke-miterlimit:11.3386;}
</style>
<g id="FS">
	<line class="st0" x1="102.6" y1="105.2" x2="102.6" y2="240"/>
	<text transform="matrix(1 0 0 1 84.8673 111.0187)" class="st1 st2 st3">Links</text>
	<text transform="matrix(1 0 0 1 205.7219 163.6699)" class="st4 st3">Talking to</text>
	<text transform="matrix(1 0 0 1 205.7219 169.6699)" class="st4 st3">--- - .... . .-. ...</text>
	<text transform="matrix(1 0 0 1 205.7219 182.6699)" class="st4 st3">Lee Hiuyan</text>
	<text transform="matrix(1 0 0 1 205.7219 189.8699)" class="st2 st3"> </text>
	<text transform="matrix(1 0 0 1 707.9368 170.9095)" class="st5 st6">對話</text>
	<text transform="matrix(1 0 0 1 707.9368 184.9095)" class="st5 st6">李曉欣</text>
	<text transform="matrix(1 0 0 1 118.6337 159.494)" class="st5 st7 st8">.---- ....- .---- --... </text>
	<text transform="matrix(1 0 0 1 122.8517 198.485)" class="st5 st7 st8">-.... .---- .---- ....-</text>
</g>
<g id="back_silk" class="st9">
	
		<image style="display:inline;overflow:visible;enable-background:new    ;" width="3024" height="1782" xlink:href="F61C0833.png"  transform="matrix(0.1337 0 0 0.1337 445.1581 48.8966)">
	</image>
	
		<image style="display:inline;overflow:visible;enable-background:new    ;" width="3016" height="1792" xlink:href="F61C0831.png"  transform="matrix(0.1328 0 0 0.1328 45.7502 49.0757)">
	</image>
</g>
<g id="Edge" class="st9">
	<path class="st10" d="M44.9,49.1v51.2H11.5c-3,0-5.4,2.4-5.4,5.4v122.7c0,3,2.4,5.4,5.4,5.4h33.4V288h805.6V49L44.9,49.1L44.9,49.1
		z"/>
</g>
<g id="Edge_00000176039638178964729020000008014622071318793653_">
	<path class="st11" d="M980,49.1v51.2h-33.4c-3,0-5.4,2.4-5.4,5.4v122.7c0,3,2.4,5.4,5.4,5.4H980V288h805.6V49L980,49.1L980,49.1z"
		/>
</g>
<g id="back_silk_00000101070113052108470690000016983536049567733387_">
	
		<image style="overflow:visible;enable-background:new    ;" width="3024" height="1782" xlink:href="F61C0833.png"  transform="matrix(0.1337 0 0 0.1337 2315.3516 48.8966)">
	</image>
	
		<image style="overflow:visible;enable-background:new    ;" width="3016" height="1792" xlink:href="F61C0831.png"  transform="matrix(0.1328 0 0 0.1328 1915.9438 49.0757)">
	</image>
</g>
</svg>
