%TF.GenerationSoftware,KiCad,Pcbnew,9.0.6*%
%TF.CreationDate,2025-12-10T00:31:55+01:00*%
%TF.ProjectId,laserboard_2.0,6c617365-7262-46f6-9172-645f322e302e,rev?*%
%TF.SameCoordinates,Original*%
%TF.FileFunction,Soldermask,Bot*%
%TF.FilePolarity,Negative*%
%FSLAX46Y46*%
G04 Gerber Fmt 4.6, Leading zero omitted, Abs format (unit mm)*
G04 Created by KiCad (PCBNEW 9.0.6) date 2025-12-10 00:31:55*
%MOMM*%
%LPD*%
G01*
G04 APERTURE LIST*
G04 Aperture macros list*
%AMRoundRect*
0 Rectangle with rounded corners*
0 $1 Rounding radius*
0 $2 $3 $4 $5 $6 $7 $8 $9 X,Y pos of 4 corners*
0 Add a 4 corners polygon primitive as box body*
4,1,4,$2,$3,$4,$5,$6,$7,$8,$9,$2,$3,0*
0 Add four circle primitives for the rounded corners*
1,1,$1+$1,$2,$3*
1,1,$1+$1,$4,$5*
1,1,$1+$1,$6,$7*
1,1,$1+$1,$8,$9*
0 Add four rect primitives between the rounded corners*
20,1,$1+$1,$2,$3,$4,$5,0*
20,1,$1+$1,$4,$5,$6,$7,0*
20,1,$1+$1,$6,$7,$8,$9,0*
20,1,$1+$1,$8,$9,$2,$3,0*%
%AMRotRect*
0 Rectangle, with rotation*
0 The origin of the aperture is its center*
0 $1 length*
0 $2 width*
0 $3 Rotation angle, in degrees counterclockwise*
0 Add horizontal line*
21,1,$1,$2,0,0,$3*%
G04 Aperture macros list end*
%ADD10RotRect,2.000000X2.000000X302.400000*%
%ADD11C,2.286000*%
%ADD12C,6.500000*%
%ADD13RotRect,2.000000X2.000000X165.600000*%
%ADD14RotRect,2.000000X2.000000X280.800000*%
%ADD15RotRect,2.000000X2.000000X331.200000*%
%ADD16RotRect,2.000000X2.000000X208.800000*%
%ADD17RotRect,2.000000X2.000000X108.000000*%
%ADD18RotRect,2.000000X2.000000X216.000000*%
%ADD19RotRect,2.000000X2.000000X28.800000*%
%ADD20RotRect,2.000000X2.000000X338.400000*%
%ADD21RotRect,2.000000X2.000000X266.400000*%
%ADD22RotRect,2.000000X2.000000X72.000000*%
%ADD23RotRect,2.000000X2.000000X324.000000*%
%ADD24RotRect,2.000000X2.000000X288.000000*%
%ADD25RotRect,2.000000X2.000000X252.000000*%
%ADD26RotRect,2.000000X2.000000X93.600000*%
%ADD27RotRect,2.000000X2.000000X21.600000*%
%ADD28RotRect,2.000000X2.000000X230.400000*%
%ADD29RotRect,2.000000X2.000000X151.200000*%
%ADD30RotRect,2.000000X2.000000X259.200000*%
%ADD31RoundRect,0.250000X0.620000X0.845000X-0.620000X0.845000X-0.620000X-0.845000X0.620000X-0.845000X0*%
%ADD32O,1.740000X2.190000*%
%ADD33RotRect,2.000000X2.000000X129.600000*%
%ADD34RoundRect,0.250000X0.600000X0.725000X-0.600000X0.725000X-0.600000X-0.725000X0.600000X-0.725000X0*%
%ADD35O,1.700000X1.950000*%
%ADD36RotRect,2.000000X2.000000X136.800000*%
%ADD37R,2.000000X2.000000*%
%ADD38RotRect,2.000000X2.000000X144.000000*%
%ADD39RotRect,2.000000X2.000000X36.000000*%
%ADD40RotRect,2.000000X2.000000X14.400000*%
%ADD41RotRect,2.000000X2.000000X57.600000*%
%ADD42RotRect,2.000000X2.000000X158.400000*%
%ADD43RotRect,2.000000X2.000000X115.200000*%
%ADD44RotRect,2.000000X2.000000X201.600000*%
%ADD45RotRect,2.000000X2.000000X237.600000*%
%ADD46RotRect,2.000000X2.000000X64.800000*%
%ADD47RotRect,2.000000X2.000000X86.400000*%
%ADD48RotRect,2.000000X2.000000X122.400000*%
%ADD49RotRect,2.000000X2.000000X50.400000*%
%ADD50RotRect,2.000000X2.000000X309.600000*%
%ADD51RotRect,2.000000X2.000000X295.200000*%
%ADD52RotRect,2.000000X2.000000X316.800000*%
%ADD53RotRect,2.000000X2.000000X43.200000*%
%ADD54RotRect,2.000000X2.000000X345.600000*%
%ADD55RotRect,2.000000X2.000000X244.800000*%
%ADD56RotRect,2.000000X2.000000X352.800000*%
%ADD57RotRect,2.000000X2.000000X7.200000*%
%ADD58RotRect,2.000000X2.000000X194.400000*%
%ADD59RotRect,2.000000X2.000000X100.800000*%
%ADD60RotRect,2.000000X2.000000X172.800000*%
%ADD61R,1.600000X1.600000*%
%ADD62C,1.600000*%
%ADD63RotRect,2.000000X2.000000X79.200000*%
%ADD64RotRect,2.000000X2.000000X187.200000*%
%ADD65RotRect,2.000000X2.000000X273.600000*%
%ADD66RotRect,2.000000X2.000000X223.200000*%
%ADD67RoundRect,0.250000X-0.600000X-0.725000X0.600000X-0.725000X0.600000X0.725000X-0.600000X0.725000X0*%
G04 APERTURE END LIST*
D10*
%TO.C,LD18*%
X111359524Y-179497905D03*
D11*
X114574485Y-184563873D03*
D12*
X107478873Y-185513763D03*
%TD*%
D13*
%TO.C,LD49*%
X226598794Y-30375641D03*
D11*
X220787295Y-28883501D03*
D12*
X225309528Y-23333780D03*
%TD*%
D14*
%TO.C,LD15*%
X98429160Y-143785437D03*
D11*
X99553448Y-149679161D03*
D12*
X92606437Y-147950277D03*
%TD*%
D15*
%TO.C,LD22*%
X147067963Y-215077279D03*
D11*
X152325803Y-217967801D03*
D12*
X146565484Y-222218534D03*
%TD*%
D16*
%TO.C,LD5*%
X152325803Y-37532199D03*
D11*
X147067963Y-40422721D03*
D12*
X146565484Y-33281466D03*
%TD*%
D17*
%TO.C,LD41*%
X295771979Y-99298805D03*
D11*
X293917877Y-93592466D03*
D12*
X301026795Y-94437025D03*
%TD*%
D18*
%TO.C,LD6*%
X141382612Y-44030755D03*
D11*
X136528510Y-47557466D03*
D12*
X135134957Y-40535500D03*
%TD*%
D19*
%TO.C,LD30*%
X244674197Y-217967801D03*
D11*
X249932037Y-215077279D03*
D12*
X250434516Y-222218534D03*
%TD*%
D20*
%TO.C,LD23*%
X158418530Y-220834821D03*
D11*
X163997189Y-223043568D03*
D12*
X158815050Y-227982742D03*
%TD*%
D21*
%TO.C,LD13*%
X97585219Y-118395049D03*
D11*
X97208475Y-124383209D03*
D12*
X90909673Y-120980991D03*
%TD*%
D22*
%TO.C,LD36*%
X293917877Y-161907534D03*
D11*
X295771979Y-156201195D03*
D12*
X301026795Y-161062975D03*
%TD*%
D23*
%TO.C,LD21*%
X136528510Y-207942534D03*
D11*
X141382612Y-211469245D03*
D12*
X135134957Y-214964500D03*
%TD*%
D24*
%TO.C,LD16*%
X101228021Y-156201195D03*
D11*
X103082123Y-161907534D03*
D12*
X95973205Y-161062975D03*
%TD*%
D25*
%TO.C,LD11*%
X103082123Y-93592466D03*
D11*
X101228021Y-99298805D03*
D12*
X95973205Y-94437025D03*
%TD*%
D26*
%TO.C,LD39*%
X299791525Y-124383209D03*
D11*
X299414781Y-118395049D03*
D12*
X306090327Y-120980991D03*
%TD*%
D27*
%TO.C,LD29*%
X233002811Y-223043568D03*
D11*
X238581470Y-220834821D03*
D12*
X238184950Y-227982742D03*
%TD*%
D28*
%TO.C,LD8*%
X122356930Y-60865465D03*
D11*
X118532386Y-65488545D03*
D12*
X115436322Y-59033749D03*
%TD*%
D29*
%TO.C,LD47*%
X249932037Y-40422721D03*
D11*
X244674197Y-37532199D03*
D12*
X250434516Y-33281466D03*
%TD*%
D30*
%TO.C,LD12*%
X99553448Y-105820839D03*
D11*
X98429160Y-111714563D03*
D12*
X92606437Y-107549723D03*
%TD*%
D31*
%TO.C,J1*%
X231275000Y-129985000D03*
D32*
X228735000Y-129985000D03*
%TD*%
D33*
%TO.C,LD44*%
X278467614Y-65488545D03*
D11*
X274643070Y-60865465D03*
D12*
X281563678Y-59033749D03*
%TD*%
D34*
%TO.C,J3*%
X221500000Y-126750000D03*
D35*
X219000000Y-126750000D03*
X216500000Y-126750000D03*
%TD*%
D36*
%TO.C,LD45*%
X270033616Y-55956895D03*
D11*
X265659804Y-51849613D03*
D12*
X272296266Y-49164958D03*
%TD*%
D37*
%TO.C,LD26*%
X195500000Y-229053051D03*
D11*
X201500000Y-229053051D03*
D12*
X198500000Y-235553051D03*
%TD*%
D38*
%TO.C,LD46*%
X260471490Y-47557466D03*
D11*
X255617388Y-44030755D03*
D12*
X261865043Y-40535500D03*
%TD*%
D39*
%TO.C,LD31*%
X255617388Y-211469245D03*
D11*
X260471490Y-207942534D03*
D12*
X261865043Y-214964500D03*
%TD*%
D40*
%TO.C,LD28*%
X220787295Y-226616499D03*
D11*
X226598794Y-225124359D03*
D12*
X225309528Y-232166220D03*
%TD*%
D41*
%TO.C,LD34*%
X282425515Y-184563873D03*
D11*
X285640476Y-179497905D03*
D12*
X289521127Y-185513763D03*
%TD*%
D42*
%TO.C,LD48*%
X238581470Y-34665179D03*
D11*
X233002811Y-32456432D03*
D12*
X238184950Y-27517258D03*
%TD*%
D43*
%TO.C,LD42*%
X291439078Y-87331740D03*
D11*
X288884404Y-81902777D03*
D12*
X296043116Y-81849693D03*
%TD*%
D44*
%TO.C,LD4*%
X163997189Y-32456432D03*
D11*
X158418530Y-34665179D03*
D12*
X158815050Y-27517258D03*
%TD*%
D45*
%TO.C,LD9*%
X114574485Y-70936127D03*
D11*
X111359524Y-76002095D03*
D12*
X107478873Y-69986237D03*
%TD*%
D46*
%TO.C,LD35*%
X288884404Y-173597223D03*
D11*
X291439078Y-168168260D03*
D12*
X296043116Y-173650307D03*
%TD*%
D47*
%TO.C,LD38*%
X299414781Y-137104951D03*
D11*
X299791525Y-131116791D03*
D12*
X306090327Y-134519009D03*
%TD*%
D48*
%TO.C,LD43*%
X285640476Y-76002095D03*
D11*
X282425515Y-70936127D03*
D12*
X289521127Y-69986237D03*
%TD*%
D49*
%TO.C,LD33*%
X274643070Y-194634535D03*
D11*
X278467614Y-190011455D03*
D12*
X281563678Y-196466251D03*
%TD*%
D50*
%TO.C,LD19*%
X118532386Y-190011455D03*
D11*
X122356930Y-194634535D03*
D12*
X115436322Y-196466251D03*
%TD*%
D51*
%TO.C,LD17*%
X105560922Y-168168260D03*
D11*
X108115596Y-173597223D03*
D12*
X100956884Y-173650307D03*
%TD*%
D52*
%TO.C,LD20*%
X126966384Y-199543105D03*
D11*
X131340196Y-203650387D03*
D12*
X124703734Y-206335042D03*
%TD*%
D53*
%TO.C,LD32*%
X265659804Y-203650387D03*
D11*
X270033616Y-199543105D03*
D12*
X272296266Y-206335042D03*
%TD*%
D54*
%TO.C,LD24*%
X170401206Y-225124359D03*
D11*
X176212705Y-226616499D03*
D12*
X171690472Y-232166220D03*
%TD*%
D37*
%TO.C,LD1*%
X201500000Y-26446949D03*
D11*
X195500000Y-26446949D03*
D12*
X198500000Y-19946949D03*
%TD*%
D55*
%TO.C,LD10*%
X108115596Y-81902777D03*
D11*
X105560922Y-87331740D03*
D12*
X100956884Y-81849693D03*
%TD*%
D56*
%TO.C,LD25*%
X182827017Y-227878246D03*
D11*
X188779705Y-228630246D03*
D12*
X184988695Y-234702992D03*
%TD*%
D57*
%TO.C,LD27*%
X208220295Y-228630246D03*
D11*
X214172983Y-227878246D03*
D12*
X212011305Y-234702992D03*
%TD*%
D58*
%TO.C,LD3*%
X176212705Y-28883501D03*
D11*
X170401206Y-30375641D03*
D12*
X171690472Y-23333780D03*
%TD*%
D59*
%TO.C,LD40*%
X298570840Y-111714563D03*
D11*
X297446552Y-105820839D03*
D12*
X304393563Y-107549723D03*
%TD*%
D60*
%TO.C,LD50*%
X214172983Y-27621754D03*
D11*
X208220295Y-26869754D03*
D12*
X212011305Y-20797008D03*
%TD*%
D61*
%TO.C,U1*%
X190760000Y-98766949D03*
D62*
X190760000Y-101306949D03*
X190760000Y-103846949D03*
X190760000Y-106386949D03*
X190760000Y-108926949D03*
X190760000Y-111466949D03*
X190760000Y-114006949D03*
X190760000Y-116546949D03*
X190760000Y-119086949D03*
X190760000Y-121626949D03*
X190760000Y-124166949D03*
X190760000Y-126706949D03*
X190760000Y-129246949D03*
X190760000Y-131786949D03*
X190760000Y-134326949D03*
X190760000Y-136866949D03*
X190760000Y-139406949D03*
X190760000Y-141946949D03*
X190760000Y-144486949D03*
X190760000Y-147026949D03*
X190760000Y-149566949D03*
X190760000Y-152106949D03*
X190760000Y-154646949D03*
X190760000Y-157186949D03*
X206000000Y-157186949D03*
X206000000Y-154646949D03*
X206000000Y-152106949D03*
X206000000Y-149566949D03*
X206000000Y-147026949D03*
X206000000Y-144486949D03*
X206000000Y-141946949D03*
X206000000Y-139406949D03*
X206000000Y-136866949D03*
X206000000Y-134326949D03*
X206000000Y-131786949D03*
X206000000Y-129246949D03*
X206000000Y-126706949D03*
X206000000Y-124166949D03*
X206000000Y-121626949D03*
X206000000Y-119086949D03*
X206000000Y-116546949D03*
X206000000Y-114006949D03*
X206000000Y-111466949D03*
X206000000Y-108926949D03*
X206000000Y-106386949D03*
X206000000Y-103846949D03*
X206000000Y-101306949D03*
X206000000Y-98766949D03*
%TD*%
D63*
%TO.C,LD37*%
X297446552Y-149679161D03*
D11*
X298570840Y-143785437D03*
D12*
X304393563Y-147950277D03*
%TD*%
D64*
%TO.C,LD2*%
X188779705Y-26869754D03*
D11*
X182827017Y-27621754D03*
D12*
X184988695Y-20797008D03*
%TD*%
D65*
%TO.C,LD14*%
X97208475Y-131116791D03*
D11*
X97585219Y-137104951D03*
D12*
X90909673Y-134519009D03*
%TD*%
D66*
%TO.C,LD7*%
X131340196Y-51849613D03*
D11*
X126966384Y-55956895D03*
D12*
X124703734Y-49164958D03*
%TD*%
D67*
%TO.C,J4*%
X216500000Y-134246949D03*
D35*
X219000000Y-134246949D03*
X221500000Y-134246949D03*
%TD*%
M02*
