%TF.GenerationSoftware,KiCad,Pcbnew,8.0.7*%
%TF.CreationDate,2025-01-10T02:59:42+01:00*%
%TF.ProjectId,laserboard_2.0,6c617365-7262-46f6-9172-645f322e302e,rev?*%
%TF.SameCoordinates,Original*%
%TF.FileFunction,Soldermask,Bot*%
%TF.FilePolarity,Negative*%
%FSLAX46Y46*%
G04 Gerber Fmt 4.6, Leading zero omitted, Abs format (unit mm)*
G04 Created by KiCad (PCBNEW 8.0.7) date 2025-01-10 02:59:42*
%MOMM*%
%LPD*%
G01*
G04 APERTURE LIST*
G04 Aperture macros list*
%AMRoundRect*
0 Rectangle with rounded corners*
0 $1 Rounding radius*
0 $2 $3 $4 $5 $6 $7 $8 $9 X,Y pos of 4 corners*
0 Add a 4 corners polygon primitive as box body*
4,1,4,$2,$3,$4,$5,$6,$7,$8,$9,$2,$3,0*
0 Add four circle primitives for the rounded corners*
1,1,$1+$1,$2,$3*
1,1,$1+$1,$4,$5*
1,1,$1+$1,$6,$7*
1,1,$1+$1,$8,$9*
0 Add four rect primitives between the rounded corners*
20,1,$1+$1,$2,$3,$4,$5,0*
20,1,$1+$1,$4,$5,$6,$7,0*
20,1,$1+$1,$6,$7,$8,$9,0*
20,1,$1+$1,$8,$9,$2,$3,0*%
G04 Aperture macros list end*
%ADD10C,6.500000*%
%ADD11R,3.500000X3.500000*%
%ADD12RoundRect,0.750000X-0.750000X-1.000000X0.750000X-1.000000X0.750000X1.000000X-0.750000X1.000000X0*%
%ADD13RoundRect,0.875000X-0.875000X-0.875000X0.875000X-0.875000X0.875000X0.875000X-0.875000X0.875000X0*%
%ADD14RoundRect,0.250000X0.600000X0.725000X-0.600000X0.725000X-0.600000X-0.725000X0.600000X-0.725000X0*%
%ADD15O,1.700000X1.950000*%
%ADD16R,1.600000X1.600000*%
%ADD17C,1.600000*%
G04 APERTURE END LIST*
D10*
%TO.C,LD4*%
X127750000Y-169750000D03*
%TD*%
%TO.C,LD27*%
X107025001Y-96500000D03*
%TD*%
%TO.C,LD35*%
X187075001Y-96500000D03*
%TD*%
%TO.C,LD34*%
X177075000Y-96500000D03*
%TD*%
%TO.C,LD6*%
X147750000Y-169750000D03*
%TD*%
%TO.C,LD16*%
X247750000Y-169750000D03*
%TD*%
%TO.C,LD33*%
X167075000Y-96500000D03*
%TD*%
%TO.C,LD25*%
X337750000Y-169750000D03*
%TD*%
%TO.C,LD31*%
X147075000Y-96500000D03*
%TD*%
%TO.C,LD43*%
X267575000Y-96500000D03*
%TD*%
%TO.C,LD19*%
X277750000Y-169750000D03*
%TD*%
%TO.C,LD14*%
X227750000Y-169750000D03*
%TD*%
%TO.C,LD36*%
X197125001Y-96500000D03*
%TD*%
%TO.C,LD46*%
X297575000Y-96500000D03*
%TD*%
%TO.C,LD40*%
X237375000Y-96500000D03*
%TD*%
%TO.C,LD22*%
X307750000Y-169750000D03*
%TD*%
%TO.C,LD28*%
X117025001Y-96500000D03*
%TD*%
%TO.C,REF\u002A\u002A*%
X351750000Y-168000000D03*
%TD*%
%TO.C,LD47*%
X307575000Y-96500000D03*
%TD*%
%TO.C,LD11*%
X197750000Y-169750000D03*
%TD*%
%TO.C,REF\u002A\u002A*%
X351750000Y-97750000D03*
%TD*%
%TO.C,LD12*%
X207750000Y-169750000D03*
%TD*%
%TO.C,LD9*%
X177750000Y-169750000D03*
%TD*%
%TO.C,LD20*%
X287750000Y-169750000D03*
%TD*%
D11*
%TO.C,5V*%
X78750000Y-148250000D03*
D12*
X72750000Y-148250000D03*
D13*
X75750000Y-152950000D03*
%TD*%
D10*
%TO.C,LD1*%
X97750000Y-169750000D03*
%TD*%
%TO.C,LD2*%
X107750000Y-169750000D03*
%TD*%
%TO.C,LD24*%
X327750000Y-169750000D03*
%TD*%
%TO.C,REF\u002A\u002A*%
X84000000Y-97750000D03*
%TD*%
%TO.C,LD5*%
X137750000Y-169750000D03*
%TD*%
%TO.C,LD32*%
X157075000Y-96500000D03*
%TD*%
%TO.C,LD39*%
X227325000Y-96500000D03*
%TD*%
%TO.C,LD41*%
X247575000Y-96500000D03*
%TD*%
%TO.C,LD45*%
X287575000Y-96500000D03*
%TD*%
%TO.C,LD50*%
X337575000Y-96500000D03*
%TD*%
D11*
%TO.C,9V*%
X78750000Y-134250000D03*
D12*
X72750000Y-134250000D03*
D13*
X75750000Y-138950000D03*
%TD*%
D10*
%TO.C,LD42*%
X257575000Y-96500000D03*
%TD*%
%TO.C,LD30*%
X137075000Y-96500000D03*
%TD*%
D14*
%TO.C,Printer*%
X77500000Y-124000000D03*
D15*
X75000000Y-124000000D03*
X72500000Y-124000000D03*
X70000000Y-124000000D03*
X67500000Y-124000000D03*
%TD*%
D10*
%TO.C,LD29*%
X127075001Y-96500000D03*
%TD*%
%TO.C,LD3*%
X117750000Y-169750000D03*
%TD*%
%TO.C,LD13*%
X217750000Y-169750000D03*
%TD*%
%TO.C,LD48*%
X317575000Y-96500000D03*
%TD*%
%TO.C,LD21*%
X297750000Y-169750000D03*
%TD*%
%TO.C,LD8*%
X167750000Y-169750000D03*
%TD*%
D14*
%TO.C,Serial Com*%
X72750000Y-114500000D03*
D15*
X70250000Y-114500000D03*
X67750000Y-114500000D03*
%TD*%
D10*
%TO.C,LD10*%
X187750000Y-169750000D03*
%TD*%
%TO.C,LD23*%
X317750000Y-169750000D03*
%TD*%
%TO.C,LD7*%
X157750000Y-169750000D03*
%TD*%
%TO.C,LD37*%
X207125001Y-96500000D03*
%TD*%
%TO.C,LD49*%
X327575000Y-96500000D03*
%TD*%
%TO.C,LD15*%
X237750000Y-169750000D03*
%TD*%
%TO.C,LD18*%
X267750000Y-169750000D03*
%TD*%
D16*
%TO.C,Teensy*%
X183860000Y-142490000D03*
D17*
X186400000Y-142490000D03*
X188940000Y-142490000D03*
X191480000Y-142490000D03*
X194020000Y-142490000D03*
X196560000Y-142490000D03*
X199100000Y-142490000D03*
X201640000Y-142490000D03*
X204180000Y-142490000D03*
X206720000Y-142490000D03*
X209260000Y-142490000D03*
X211800000Y-142490000D03*
X214340000Y-142490000D03*
X216880000Y-142490000D03*
X219420000Y-142490000D03*
X221960000Y-142490000D03*
X224500000Y-142490000D03*
X227040000Y-142490000D03*
X229580000Y-142490000D03*
X232120000Y-142490000D03*
X234660000Y-142490000D03*
X237200000Y-142490000D03*
X239740000Y-142490000D03*
X242280000Y-142490000D03*
X242280000Y-127250000D03*
X239740000Y-127250000D03*
X237200000Y-127250000D03*
X234660000Y-127250000D03*
X232120000Y-127250000D03*
X229580000Y-127250000D03*
X227040000Y-127250000D03*
X224500000Y-127250000D03*
X221960000Y-127250000D03*
X219420000Y-127250000D03*
X216880000Y-127250000D03*
X214340000Y-127250000D03*
X211800000Y-127250000D03*
X209260000Y-127250000D03*
X206720000Y-127250000D03*
X204180000Y-127250000D03*
X201640000Y-127250000D03*
X199100000Y-127250000D03*
X196560000Y-127250000D03*
X194020000Y-127250000D03*
X191480000Y-127250000D03*
X188940000Y-127250000D03*
X186400000Y-127250000D03*
X183860000Y-127250000D03*
%TD*%
D10*
%TO.C,REF\u002A\u002A*%
X83750000Y-168000000D03*
%TD*%
%TO.C,LD38*%
X217325000Y-96500000D03*
%TD*%
%TO.C,LD26*%
X97025001Y-96500000D03*
%TD*%
%TO.C,LD44*%
X277575000Y-96500000D03*
%TD*%
%TO.C,LD17*%
X257750000Y-169750000D03*
%TD*%
M02*
