%TF.GenerationSoftware,KiCad,Pcbnew,8.0.7*%
%TF.CreationDate,2025-01-10T02:59:42+01:00*%
%TF.ProjectId,laserboard_2.0,6c617365-7262-46f6-9172-645f322e302e,rev?*%
%TF.SameCoordinates,Original*%
%TF.FileFunction,Profile,NP*%
%FSLAX46Y46*%
G04 Gerber Fmt 4.6, Leading zero omitted, Abs format (unit mm)*
G04 Created by KiCad (PCBNEW 8.0.7) date 2025-01-10 02:59:42*
%MOMM*%
%LPD*%
G01*
G04 APERTURE LIST*
%TA.AperFunction,Profile*%
%ADD10C,0.100000*%
%TD*%
G04 APERTURE END LIST*
D10*
X359250000Y-175103094D02*
X75762748Y-175103094D01*
X75762748Y-156030340D01*
X64009427Y-156030340D01*
X63911095Y-156027885D01*
X63814115Y-156020598D01*
X63718604Y-156008594D01*
X63624679Y-155991989D01*
X63532455Y-155970900D01*
X63442047Y-155945442D01*
X63353573Y-155915732D01*
X63267147Y-155881885D01*
X63182887Y-155844017D01*
X63100908Y-155802244D01*
X63021325Y-155756683D01*
X62944256Y-155707449D01*
X62869815Y-155654658D01*
X62798119Y-155598427D01*
X62729284Y-155538871D01*
X62663426Y-155476106D01*
X62600661Y-155410248D01*
X62541104Y-155341413D01*
X62484873Y-155269717D01*
X62432082Y-155195276D01*
X62382848Y-155118207D01*
X62337287Y-155038625D01*
X62295514Y-154956645D01*
X62257646Y-154872385D01*
X62223799Y-154785959D01*
X62194088Y-154697485D01*
X62168630Y-154607077D01*
X62147541Y-154514853D01*
X62130937Y-154420927D01*
X62118932Y-154325417D01*
X62111645Y-154228437D01*
X62109190Y-154130104D01*
X62109190Y-110952491D01*
X62111645Y-110854159D01*
X62118932Y-110757179D01*
X62130937Y-110661668D01*
X62147541Y-110567743D01*
X62168630Y-110475519D01*
X62194088Y-110385111D01*
X62223799Y-110296637D01*
X62257646Y-110210212D01*
X62295514Y-110125951D01*
X62337287Y-110043972D01*
X62382848Y-109964389D01*
X62432082Y-109887320D01*
X62484873Y-109812879D01*
X62541104Y-109741184D01*
X62600661Y-109672349D01*
X62663426Y-109606491D01*
X62729284Y-109543726D01*
X62798119Y-109484169D01*
X62869815Y-109427938D01*
X62944256Y-109375147D01*
X63021325Y-109325913D01*
X63100908Y-109280351D01*
X63182887Y-109238579D01*
X63267147Y-109200711D01*
X63353573Y-109166864D01*
X63442047Y-109137153D01*
X63532455Y-109111695D01*
X63624679Y-109090606D01*
X63718604Y-109074001D01*
X63814115Y-109061997D01*
X63911095Y-109054710D01*
X64009427Y-109052255D01*
X75762748Y-109052255D01*
X75762748Y-91000000D01*
X359250000Y-91000000D01*
X359250000Y-175103094D01*
M02*
