%TF.GenerationSoftware,KiCad,Pcbnew,9.0.6*%
%TF.CreationDate,2025-12-10T00:31:55+01:00*%
%TF.ProjectId,laserboard_2.0,6c617365-7262-46f6-9172-645f322e302e,rev?*%
%TF.SameCoordinates,Original*%
%TF.FileFunction,Soldermask,Top*%
%TF.FilePolarity,Negative*%
%FSLAX46Y46*%
G04 Gerber Fmt 4.6, Leading zero omitted, Abs format (unit mm)*
G04 Created by KiCad (PCBNEW 9.0.6) date 2025-12-10 00:31:55*
%MOMM*%
%LPD*%
G01*
G04 APERTURE LIST*
G04 Aperture macros list*
%AMRoundRect*
0 Rectangle with rounded corners*
0 $1 Rounding radius*
0 $2 $3 $4 $5 $6 $7 $8 $9 X,Y pos of 4 corners*
0 Add a 4 corners polygon primitive as box body*
4,1,4,$2,$3,$4,$5,$6,$7,$8,$9,$2,$3,0*
0 Add four circle primitives for the rounded corners*
1,1,$1+$1,$2,$3*
1,1,$1+$1,$4,$5*
1,1,$1+$1,$6,$7*
1,1,$1+$1,$8,$9*
0 Add four rect primitives between the rounded corners*
20,1,$1+$1,$2,$3,$4,$5,0*
20,1,$1+$1,$4,$5,$6,$7,0*
20,1,$1+$1,$6,$7,$8,$9,0*
20,1,$1+$1,$8,$9,$2,$3,0*%
%AMRotRect*
0 Rectangle, with rotation*
0 The origin of the aperture is its center*
0 $1 length*
0 $2 width*
0 $3 Rotation angle, in degrees counterclockwise*
0 Add horizontal line*
21,1,$1,$2,0,0,$3*%
G04 Aperture macros list end*
%ADD10RoundRect,0.200000X-0.084721X-0.329313X0.287190X-0.182064X0.084721X0.329313X-0.287190X0.182064X0*%
%ADD11RoundRect,0.200000X-0.334044X-0.063557X-0.042457X-0.337376X0.334044X0.063557X0.042457X0.337376X0*%
%ADD12RotRect,2.000000X2.000000X302.400000*%
%ADD13C,2.286000*%
%ADD14C,6.500000*%
%ADD15RoundRect,0.150000X0.466676X-0.387130X-0.223971X0.563465X-0.466676X0.387130X0.223971X-0.563465X0*%
%ADD16RoundRect,0.200000X0.000162X0.340037X-0.323444X0.104923X-0.000162X-0.340037X0.323444X-0.104923X0*%
%ADD17RoundRect,0.150000X-0.595759X-0.112815X0.576922X-0.186593X0.595759X0.112815X-0.576922X0.186593X0*%
%ADD18RotRect,2.000000X2.000000X165.600000*%
%ADD19RoundRect,0.150000X0.512393X0.324206X-0.605098X-0.038889X-0.512393X-0.324206X0.605098X0.038889X0*%
%ADD20RoundRect,0.200000X-0.125025X0.316218X-0.339356X-0.021513X0.125025X-0.316218X0.339356X0.021513X0*%
%ADD21RoundRect,0.200000X0.339356X-0.021513X0.125025X0.316218X-0.339356X0.021513X-0.125025X-0.316218X0*%
%ADD22RotRect,2.000000X2.000000X280.800000*%
%ADD23RoundRect,0.200000X0.287015X-0.182338X0.261899X0.216873X-0.287015X0.182338X-0.261899X-0.216873X0*%
%ADD24RoundRect,0.150000X-0.576417X0.188149X0.415669X-0.441447X0.576417X-0.188149X-0.415669X0.441447X0*%
%ADD25RotRect,2.000000X2.000000X331.200000*%
%ADD26RotRect,2.000000X2.000000X208.800000*%
%ADD27RoundRect,0.150000X0.357063X0.490064X-0.548290X-0.258910X-0.357063X-0.490064X0.548290X0.258910X0*%
%ADD28RotRect,2.000000X2.000000X108.000000*%
%ADD29RoundRect,0.200000X-0.339376X-0.021189X-0.084406X-0.329394X0.339376X0.021189X0.084406X0.329394X0*%
%ADD30RoundRect,0.200000X-0.200000X-0.275000X0.200000X-0.275000X0.200000X0.275000X-0.200000X0.275000X0*%
%ADD31RoundRect,0.200000X-0.125327X-0.316098X0.262106X-0.216622X0.125327X0.316098X-0.262106X0.216622X0*%
%ADD32RotRect,2.000000X2.000000X216.000000*%
%ADD33RotRect,2.000000X2.000000X28.800000*%
%ADD34RoundRect,0.200000X0.232653X-0.247987X0.307605X0.144928X-0.232653X0.247987X-0.307605X-0.144928X0*%
%ADD35RoundRect,0.150000X0.548987X0.257430X-0.605201X0.037257X-0.548987X-0.257430X0.605201X-0.037257X0*%
%ADD36RoundRect,0.150000X-0.076807X-0.601462X0.355740X0.491025X0.076807X0.601462X-0.355740X-0.491025X0*%
%ADD37RoundRect,0.150000X-0.075184X0.601667X-0.222450X-0.564067X0.075184X-0.601667X0.222450X0.564067X0*%
%ADD38RoundRect,0.200000X-0.287190X-0.182064X0.084721X-0.329313X0.287190X0.182064X-0.084721X0.329313X0*%
%ADD39RoundRect,0.200000X0.334044X0.063557X0.042457X0.337376X-0.334044X-0.063557X-0.042457X-0.337376X0*%
%ADD40RotRect,2.000000X2.000000X338.400000*%
%ADD41RoundRect,0.150000X-0.466676X0.387130X0.223971X-0.563465X0.466676X-0.387130X-0.223971X0.563465X0*%
%ADD42RotRect,2.000000X2.000000X266.400000*%
%ADD43RotRect,2.000000X2.000000X72.000000*%
%ADD44RoundRect,0.150000X-0.291393X0.531739X0.000818X-0.606346X0.291393X-0.531739X-0.000818X0.606346X0*%
%ADD45RoundRect,0.200000X0.262106X0.216622X-0.125327X0.316098X-0.262106X-0.216622X0.125327X-0.316098X0*%
%ADD46RoundRect,0.200000X0.323444X0.104923X-0.000162X0.340037X-0.323444X-0.104923X0.000162X-0.340037X0*%
%ADD47RoundRect,0.150000X-0.292826X-0.530951X0.511517X0.325587X0.292826X0.530951X-0.511517X-0.325587X0*%
%ADD48RoundRect,0.200000X0.163672X-0.298055X0.333983X0.063876X-0.163672X0.298055X-0.333983X-0.063876X0*%
%ADD49RotRect,2.000000X2.000000X324.000000*%
%ADD50RotRect,2.000000X2.000000X288.000000*%
%ADD51RoundRect,0.200000X0.125327X0.316098X-0.262106X0.216622X-0.125327X-0.316098X0.262106X-0.216622X0*%
%ADD52RoundRect,0.150000X0.355740X-0.491025X-0.076807X0.601462X-0.355740X0.491025X0.076807X-0.601462X0*%
%ADD53RoundRect,0.200000X-0.042779X-0.337335X0.307744X-0.144634X0.042779X0.337335X-0.307744X0.144634X0*%
%ADD54RoundRect,0.200000X0.323344X-0.105232X0.199737X0.275191X-0.323344X0.105232X-0.199737X-0.275191X0*%
%ADD55RoundRect,0.150000X-0.512393X-0.324206X0.605098X0.038889X0.512393X0.324206X-0.605098X-0.038889X0*%
%ADD56RoundRect,0.150000X0.467719X0.385869X-0.595453X-0.114421X-0.467719X-0.385869X0.595453X0.114421X0*%
%ADD57RoundRect,0.200000X-0.307744X-0.144634X0.042779X-0.337335X0.307744X0.144634X-0.042779X0.337335X0*%
%ADD58RoundRect,0.200000X0.084721X0.329313X-0.287190X0.182064X-0.084721X-0.329313X0.287190X-0.182064X0*%
%ADD59RoundRect,0.150000X0.605098X-0.038889X-0.512393X0.324206X-0.605098X0.038889X0.512393X-0.324206X0*%
%ADD60RoundRect,0.200000X-0.261899X0.216873X-0.287015X-0.182338X0.261899X-0.216873X0.287015X0.182338X0*%
%ADD61RotRect,2.000000X2.000000X252.000000*%
%ADD62RotRect,2.000000X2.000000X93.600000*%
%ADD63RoundRect,0.200000X0.307605X-0.144928X0.232653X0.247987X-0.307605X0.144928X-0.232653X-0.247987X0*%
%ADD64RoundRect,0.200000X0.333983X-0.063876X0.163672X0.298055X-0.333983X0.063876X-0.163672X-0.298055X0*%
%ADD65RoundRect,0.150000X0.075184X-0.601667X0.222450X0.564067X-0.075184X0.601667X-0.222450X-0.564067X0*%
%ADD66RoundRect,0.200000X0.125025X-0.316218X0.339356X0.021513X-0.125025X0.316218X-0.339356X-0.021513X0*%
%ADD67RoundRect,0.200000X0.275000X-0.200000X0.275000X0.200000X-0.275000X0.200000X-0.275000X-0.200000X0*%
%ADD68RoundRect,0.200000X-0.163956X-0.297898X0.232890X-0.247765X0.163956X0.297898X-0.232890X0.247765X0*%
%ADD69RoundRect,0.200000X-0.084406X0.329394X-0.339376X0.021189X0.084406X-0.329394X0.339376X-0.021189X0*%
%ADD70RoundRect,0.150000X0.151584X0.587093X-0.414476X-0.442567X-0.151584X-0.587093X0.414476X0.442567X0*%
%ADD71RoundRect,0.150000X0.576417X-0.188149X-0.415669X0.441447X-0.576417X0.188149X0.415669X-0.441447X0*%
%ADD72RoundRect,0.150000X-0.150000X0.587500X-0.150000X-0.587500X0.150000X-0.587500X0.150000X0.587500X0*%
%ADD73RoundRect,0.200000X-0.339356X0.021513X-0.125025X-0.316218X0.339356X-0.021513X0.125025X0.316218X0*%
%ADD74RoundRect,0.200000X0.199737X-0.275191X0.323344X0.105232X-0.199737X0.275191X-0.323344X-0.105232X0*%
%ADD75RoundRect,0.200000X0.261899X-0.216873X0.287015X0.182338X-0.261899X0.216873X-0.287015X-0.182338X0*%
%ADD76RoundRect,0.200000X0.200000X0.275000X-0.200000X0.275000X-0.200000X-0.275000X0.200000X-0.275000X0*%
%ADD77RoundRect,0.150000X-0.223971X-0.563465X0.466676X0.387130X0.223971X0.563465X-0.466676X-0.387130X0*%
%ADD78RotRect,2.000000X2.000000X21.600000*%
%ADD79RoundRect,0.200000X0.339376X0.021189X0.084406X0.329394X-0.339376X-0.021189X-0.084406X-0.329394X0*%
%ADD80RotRect,2.000000X2.000000X230.400000*%
%ADD81RoundRect,0.200000X0.307744X0.144634X-0.042779X0.337335X-0.307744X-0.144634X0.042779X-0.337335X0*%
%ADD82RotRect,2.000000X2.000000X151.200000*%
%ADD83RoundRect,0.200000X-0.323444X-0.104923X0.000162X-0.340037X0.323444X0.104923X-0.000162X0.340037X0*%
%ADD84RoundRect,0.150000X0.076807X0.601462X-0.355740X-0.491025X-0.076807X-0.601462X0.355740X0.491025X0*%
%ADD85RotRect,2.000000X2.000000X259.200000*%
%ADD86RoundRect,0.075000X-0.256326X-0.362392X0.362392X0.256326X0.256326X0.362392X-0.362392X-0.256326X0*%
%ADD87RoundRect,0.075000X0.256326X-0.362392X0.362392X-0.256326X-0.256326X0.362392X-0.362392X0.256326X0*%
%ADD88RotRect,4.250000X4.250000X45.000000*%
%ADD89RoundRect,0.250000X0.620000X0.845000X-0.620000X0.845000X-0.620000X-0.845000X0.620000X-0.845000X0*%
%ADD90O,1.740000X2.190000*%
%ADD91RotRect,2.000000X2.000000X129.600000*%
%ADD92RoundRect,0.250000X0.600000X0.725000X-0.600000X0.725000X-0.600000X-0.725000X0.600000X-0.725000X0*%
%ADD93O,1.700000X1.950000*%
%ADD94RoundRect,0.200000X-0.232653X0.247987X-0.307605X-0.144928X0.232653X-0.247987X0.307605X0.144928X0*%
%ADD95RotRect,2.000000X2.000000X136.800000*%
%ADD96R,2.000000X2.000000*%
%ADD97RoundRect,0.150000X0.000818X0.606346X-0.291393X-0.531739X-0.000818X-0.606346X0.291393X0.531739X0*%
%ADD98RoundRect,0.200000X0.084406X-0.329394X0.339376X-0.021189X-0.084406X0.329394X-0.339376X0.021189X0*%
%ADD99RoundRect,0.150000X-0.151584X-0.587093X0.414476X0.442567X0.151584X0.587093X-0.414476X-0.442567X0*%
%ADD100RoundRect,0.200000X-0.287015X0.182338X-0.261899X-0.216873X0.287015X-0.182338X0.261899X0.216873X0*%
%ADD101RoundRect,0.200000X-0.042457X0.337376X-0.334044X0.063557X0.042457X-0.337376X0.334044X-0.063557X0*%
%ADD102RoundRect,0.200000X0.042457X-0.337376X0.334044X-0.063557X-0.042457X0.337376X-0.334044X0.063557X0*%
%ADD103RoundRect,0.150000X-0.548987X-0.257430X0.605201X-0.037257X0.548987X0.257430X-0.605201X0.037257X0*%
%ADD104RotRect,2.000000X2.000000X144.000000*%
%ADD105RotRect,2.000000X2.000000X36.000000*%
%ADD106RoundRect,0.150000X-0.576922X-0.186593X0.595759X-0.112815X0.576922X0.186593X-0.595759X0.112815X0*%
%ADD107RoundRect,0.150000X0.414476X-0.442567X-0.151584X0.587093X-0.414476X0.442567X0.151584X-0.587093X0*%
%ADD108RotRect,2.000000X2.000000X14.400000*%
%ADD109RoundRect,0.150000X-0.355740X0.491025X0.076807X-0.601462X0.355740X-0.491025X-0.076807X0.601462X0*%
%ADD110RoundRect,0.200000X-0.307605X0.144928X-0.232653X-0.247987X0.307605X-0.144928X0.232653X0.247987X0*%
%ADD111RoundRect,0.200000X0.042779X0.337335X-0.307744X0.144634X-0.042779X-0.337335X0.307744X-0.144634X0*%
%ADD112RotRect,2.000000X2.000000X57.600000*%
%ADD113RotRect,2.000000X2.000000X158.400000*%
%ADD114RoundRect,0.225000X0.250000X-0.225000X0.250000X0.225000X-0.250000X0.225000X-0.250000X-0.225000X0*%
%ADD115RoundRect,0.200000X0.287190X0.182064X-0.084721X0.329313X-0.287190X-0.182064X0.084721X-0.329313X0*%
%ADD116RoundRect,0.150000X0.291393X-0.531739X-0.000818X0.606346X-0.291393X0.531739X0.000818X-0.606346X0*%
%ADD117RoundRect,0.150000X0.595453X-0.114421X-0.467719X0.385869X-0.595453X0.114421X0.467719X-0.385869X0*%
%ADD118RotRect,2.000000X2.000000X115.200000*%
%ADD119RotRect,2.000000X2.000000X201.600000*%
%ADD120RoundRect,0.150000X-0.357063X-0.490064X0.548290X0.258910X0.357063X0.490064X-0.548290X-0.258910X0*%
%ADD121RoundRect,0.150000X-0.605098X0.038889X0.512393X-0.324206X0.605098X-0.038889X-0.512393X0.324206X0*%
%ADD122RoundRect,0.200000X-0.333983X0.063876X-0.163672X-0.298055X0.333983X-0.063876X0.163672X0.298055X0*%
%ADD123RotRect,2.000000X2.000000X237.600000*%
%ADD124RoundRect,0.150000X-0.467719X-0.385869X0.595453X0.114421X0.467719X0.385869X-0.595453X-0.114421X0*%
%ADD125RoundRect,0.150000X-0.222450X0.564067X-0.075184X-0.601667X0.222450X-0.564067X0.075184X0.601667X0*%
%ADD126RoundRect,0.150000X0.595759X0.112815X-0.576922X0.186593X-0.595759X-0.112815X0.576922X-0.186593X0*%
%ADD127RotRect,2.000000X2.000000X64.800000*%
%ADD128RotRect,2.000000X2.000000X86.400000*%
%ADD129RoundRect,0.200000X-0.262106X-0.216622X0.125327X-0.316098X0.262106X0.216622X-0.125327X0.316098X0*%
%ADD130RoundRect,0.200000X-0.199737X0.275191X-0.323344X-0.105232X0.199737X-0.275191X0.323344X0.105232X0*%
%ADD131RoundRect,0.200000X-0.232890X-0.247765X0.163956X-0.297898X0.232890X0.247765X-0.163956X0.297898X0*%
%ADD132RotRect,2.000000X2.000000X122.400000*%
%ADD133RotRect,2.000000X2.000000X50.400000*%
%ADD134RoundRect,0.200000X-0.163672X0.298055X-0.333983X-0.063876X0.163672X-0.298055X0.333983X0.063876X0*%
%ADD135RotRect,2.000000X2.000000X309.600000*%
%ADD136RoundRect,0.200000X0.232890X0.247765X-0.163956X0.297898X-0.232890X-0.247765X0.163956X-0.297898X0*%
%ADD137RoundRect,0.150000X0.415669X0.441447X-0.576417X-0.188149X-0.415669X-0.441447X0.576417X0.188149X0*%
%ADD138RoundRect,0.150000X-0.511517X0.325587X0.292826X-0.530951X0.511517X-0.325587X-0.292826X0.530951X0*%
%ADD139RotRect,2.000000X2.000000X295.200000*%
%ADD140RoundRect,0.200000X-0.323344X0.105232X-0.199737X-0.275191X0.323344X-0.105232X0.199737X0.275191X0*%
%ADD141RoundRect,0.150000X0.605201X0.037257X-0.548987X0.257430X-0.605201X-0.037257X0.548987X-0.257430X0*%
%ADD142RoundRect,0.150000X-0.605201X-0.037257X0.548987X-0.257430X0.605201X0.037257X-0.548987X0.257430X0*%
%ADD143RoundRect,0.218750X-0.218750X-0.256250X0.218750X-0.256250X0.218750X0.256250X-0.218750X0.256250X0*%
%ADD144RotRect,2.000000X2.000000X316.800000*%
%ADD145RotRect,2.000000X2.000000X43.200000*%
%ADD146RoundRect,0.200000X-0.000162X-0.340037X0.323444X-0.104923X0.000162X0.340037X-0.323444X0.104923X0*%
%ADD147RotRect,2.000000X2.000000X345.600000*%
%ADD148RoundRect,0.150000X0.511517X-0.325587X-0.292826X0.530951X-0.511517X0.325587X0.292826X-0.530951X0*%
%ADD149RotRect,2.000000X2.000000X244.800000*%
%ADD150RoundRect,0.150000X0.292826X0.530951X-0.511517X-0.325587X-0.292826X-0.530951X0.511517X0.325587X0*%
%ADD151RoundRect,0.200000X0.163956X0.297898X-0.232890X0.247765X-0.163956X-0.297898X0.232890X-0.247765X0*%
%ADD152RotRect,2.000000X2.000000X352.800000*%
%ADD153RotRect,2.000000X2.000000X7.200000*%
%ADD154RotRect,2.000000X2.000000X194.400000*%
%ADD155RotRect,2.000000X2.000000X100.800000*%
%ADD156RoundRect,0.150000X0.548290X-0.258910X-0.357063X0.490064X-0.548290X0.258910X0.357063X-0.490064X0*%
%ADD157RoundRect,0.150000X-0.595453X0.114421X0.467719X-0.385869X0.595453X-0.114421X-0.467719X0.385869X0*%
%ADD158RoundRect,0.150000X-0.548290X0.258910X0.357063X-0.490064X0.548290X-0.258910X-0.357063X0.490064X0*%
%ADD159RotRect,2.000000X2.000000X172.800000*%
%ADD160RoundRect,0.150000X-0.414476X0.442567X0.151584X-0.587093X0.414476X-0.442567X-0.151584X0.587093X0*%
%ADD161RoundRect,0.150000X0.150000X-0.587500X0.150000X0.587500X-0.150000X0.587500X-0.150000X-0.587500X0*%
%ADD162RoundRect,0.225000X-0.250000X0.225000X-0.250000X-0.225000X0.250000X-0.225000X0.250000X0.225000X0*%
%ADD163R,1.600000X1.600000*%
%ADD164C,1.600000*%
%ADD165RotRect,2.000000X2.000000X79.200000*%
%ADD166RotRect,2.000000X2.000000X187.200000*%
%ADD167RoundRect,0.150000X0.223971X0.563465X-0.466676X-0.387130X-0.223971X-0.563465X0.466676X0.387130X0*%
%ADD168RoundRect,0.150000X0.576922X0.186593X-0.595759X0.112815X-0.576922X-0.186593X0.595759X-0.112815X0*%
%ADD169RoundRect,0.150000X-0.000818X-0.606346X0.291393X0.531739X0.000818X0.606346X-0.291393X-0.531739X0*%
%ADD170RoundRect,0.150000X-0.415669X-0.441447X0.576417X0.188149X0.415669X0.441447X-0.576417X-0.188149X0*%
%ADD171RoundRect,0.150000X0.222450X-0.564067X0.075184X0.601667X-0.222450X0.564067X-0.075184X-0.601667X0*%
%ADD172RotRect,2.000000X2.000000X273.600000*%
%ADD173RotRect,2.000000X2.000000X223.200000*%
%ADD174RoundRect,0.250000X-0.600000X-0.725000X0.600000X-0.725000X0.600000X0.725000X-0.600000X0.725000X0*%
G04 APERTURE END LIST*
D10*
%TO.C,R11*%
X160273950Y-40709670D03*
X161808082Y-40102264D03*
%TD*%
D11*
%TO.C,R93*%
X260980585Y-56102066D03*
X262183383Y-57231568D03*
%TD*%
D12*
%TO.C,LD18*%
X111359524Y-179497905D03*
D13*
X114574485Y-184563873D03*
D14*
X107478873Y-185513763D03*
%TD*%
D15*
%TO.C,Q6*%
X144217759Y-49761899D03*
X145754891Y-48645107D03*
X143884227Y-47686597D03*
%TD*%
D16*
%TO.C,R14*%
X139988149Y-50362755D03*
X138653271Y-51332601D03*
%TD*%
D17*
%TO.C,Q38*%
X293191668Y-135636300D03*
X293072366Y-137532551D03*
X295003317Y-136702158D03*
%TD*%
D18*
%TO.C,LD49*%
X226598794Y-30375641D03*
D13*
X220787295Y-28883501D03*
D14*
X225309528Y-23333780D03*
%TD*%
D19*
%TO.C,Q16*%
X107554773Y-155275830D03*
X106967640Y-153468823D03*
X105477976Y-154951733D03*
%TD*%
D20*
%TO.C,R71*%
X280586547Y-175698397D03*
X279702433Y-177091539D03*
%TD*%
D21*
%TO.C,R39*%
X120164241Y-181608694D03*
X119280127Y-180215552D03*
%TD*%
D22*
%TO.C,LD15*%
X98429160Y-143785437D03*
D13*
X99553448Y-149679161D03*
D14*
X92606437Y-147950277D03*
%TD*%
D23*
%TO.C,R80*%
X295192430Y-119812970D03*
X295088826Y-118166226D03*
%TD*%
D24*
%TO.C,Q34*%
X277679686Y-180278877D03*
X276661615Y-181883100D03*
X278753765Y-182085664D03*
%TD*%
D25*
%TO.C,LD22*%
X147067963Y-215077279D03*
D13*
X152325803Y-217967801D03*
D14*
X146565484Y-222218534D03*
%TD*%
D26*
%TO.C,LD5*%
X152325803Y-37532199D03*
D13*
X147067963Y-40422721D03*
D14*
X146565484Y-33281466D03*
%TD*%
D27*
%TO.C,Q19*%
X124074201Y-186822042D03*
X122863095Y-185358066D03*
X122023936Y-187285224D03*
%TD*%
D28*
%TO.C,LD41*%
X295771979Y-99298805D03*
D13*
X293917877Y-93592466D03*
D14*
X301026795Y-94437025D03*
%TD*%
D29*
%TO.C,R40*%
X124939449Y-191005577D03*
X125991199Y-192276923D03*
%TD*%
D30*
%TO.C,R1*%
X262675000Y-96250000D03*
X264325000Y-96250000D03*
%TD*%
D31*
%TO.C,R9*%
X171484420Y-36605014D03*
X173082582Y-36194676D03*
%TD*%
D32*
%TO.C,LD6*%
X141382612Y-44030755D03*
D13*
X136528510Y-47557466D03*
D14*
X135134957Y-40535500D03*
%TD*%
D33*
%TO.C,LD30*%
X244674197Y-217967801D03*
D13*
X249932037Y-215077279D03*
D14*
X250434516Y-222218534D03*
%TD*%
D34*
%TO.C,R27*%
X104526876Y-113386781D03*
X104836056Y-111766007D03*
%TD*%
D35*
%TO.C,Q15*%
X104822003Y-143660322D03*
X104465978Y-141793976D03*
X102802202Y-143078489D03*
%TD*%
D36*
%TO.C,Q48*%
X235261652Y-40129873D03*
X237028227Y-40829310D03*
X236835173Y-38736261D03*
%TD*%
D37*
%TO.C,Q25*%
X184683522Y-221759630D03*
X182798504Y-221521497D03*
X183506013Y-223500779D03*
%TD*%
D30*
%TO.C,R54*%
X200350000Y-224750000D03*
X202000000Y-224750000D03*
%TD*%
D38*
%TO.C,R48*%
X164512005Y-218619349D03*
X166046137Y-219226755D03*
%TD*%
D39*
%TO.C,R43*%
X136019415Y-199397934D03*
X134816617Y-198268432D03*
%TD*%
D40*
%TO.C,LD23*%
X158418530Y-220834821D03*
D13*
X163997189Y-223043568D03*
D14*
X158815050Y-227982742D03*
%TD*%
D41*
%TO.C,Q31*%
X252782241Y-205738101D03*
X251245109Y-206854893D03*
X253115773Y-207813403D03*
%TD*%
D42*
%TO.C,LD13*%
X97585219Y-118395049D03*
D13*
X97208475Y-124383209D03*
D14*
X90909673Y-120980991D03*
%TD*%
D43*
%TO.C,LD36*%
X293917877Y-161907534D03*
D13*
X295771979Y-156201195D03*
D14*
X301026795Y-161062975D03*
%TD*%
D44*
%TO.C,Q28*%
X220261016Y-220244128D03*
X218420708Y-220716639D03*
X219807156Y-222296477D03*
%TD*%
D45*
%TO.C,R51*%
X178264502Y-220635815D03*
X176666340Y-220225477D03*
%TD*%
D46*
%TO.C,R94*%
X254018488Y-48187949D03*
X252683610Y-47218103D03*
%TD*%
D30*
%TO.C,R5*%
X195000000Y-32750000D03*
X196650000Y-32750000D03*
%TD*%
D47*
%TO.C,Q45*%
X264935239Y-59815733D03*
X266320279Y-61116373D03*
X266911285Y-59099237D03*
%TD*%
D34*
%TO.C,R76*%
X294128518Y-144108756D03*
X294437698Y-142487982D03*
%TD*%
D48*
%TO.C,R23*%
X111051203Y-90467862D03*
X111753739Y-88974898D03*
%TD*%
D49*
%TO.C,LD21*%
X136528510Y-207942534D03*
D13*
X141382612Y-211469245D03*
D14*
X135134957Y-214964500D03*
%TD*%
D50*
%TO.C,LD16*%
X101228021Y-156201195D03*
D13*
X103082123Y-161907534D03*
D14*
X95973205Y-161062975D03*
%TD*%
D51*
%TO.C,R59*%
X225515580Y-218894986D03*
X223917418Y-219305324D03*
%TD*%
D52*
%TO.C,Q4*%
X165317988Y-38712594D03*
X167084563Y-38013157D03*
X165511042Y-36619545D03*
%TD*%
D53*
%TO.C,R13*%
X149666328Y-46187003D03*
X151112234Y-45392109D03*
%TD*%
D54*
%TO.C,R35*%
X109231190Y-160435312D03*
X108721312Y-158866068D03*
%TD*%
D55*
%TO.C,Q41*%
X289445227Y-100224170D03*
X290032360Y-102031177D03*
X291522024Y-100548267D03*
%TD*%
D56*
%TO.C,Q17*%
X111721806Y-166457241D03*
X110912825Y-164738069D03*
X109620765Y-166395991D03*
%TD*%
D57*
%TO.C,R97*%
X241199526Y-42814727D03*
X242645432Y-43609621D03*
%TD*%
D58*
%TO.C,R61*%
X236726050Y-214790330D03*
X235191918Y-215397736D03*
%TD*%
D59*
%TO.C,Q11*%
X108744488Y-96562602D03*
X109331621Y-94755595D03*
X107254824Y-95079692D03*
%TD*%
D60*
%TO.C,R28*%
X101575244Y-123505669D03*
X101471640Y-125152413D03*
%TD*%
D61*
%TO.C,LD11*%
X103082123Y-93592466D03*
D13*
X101228021Y-99298805D03*
D14*
X95973205Y-94437025D03*
%TD*%
D62*
%TO.C,LD39*%
X299791525Y-124383209D03*
D13*
X299414781Y-118395049D03*
D14*
X306090327Y-120980991D03*
%TD*%
D63*
%TO.C,R33*%
X105838546Y-148989230D03*
X105529366Y-147368456D03*
%TD*%
D64*
%TO.C,R86*%
X285480532Y-84775479D03*
X284777996Y-83282515D03*
%TD*%
D65*
%TO.C,Q50*%
X212316478Y-33740370D03*
X214201496Y-33978503D03*
X213493987Y-31999221D03*
%TD*%
D39*
%TO.C,R92*%
X263552477Y-55773630D03*
X262349679Y-54644128D03*
%TD*%
D46*
%TO.C,R45*%
X145491960Y-206663863D03*
X144157082Y-205694017D03*
%TD*%
D66*
%TO.C,R21*%
X116413453Y-79801603D03*
X117297567Y-78408461D03*
%TD*%
D67*
%TO.C,R3*%
X259000000Y-96336949D03*
X259000000Y-94686949D03*
%TD*%
D68*
%TO.C,R7*%
X183120941Y-33937770D03*
X184757931Y-33730970D03*
%TD*%
D69*
%TO.C,R18*%
X122580981Y-67345323D03*
X121529231Y-68616669D03*
%TD*%
D70*
%TO.C,Q22*%
X151046510Y-210071758D03*
X149381528Y-209156426D03*
X149310731Y-211257168D03*
%TD*%
D71*
%TO.C,Q9*%
X119320314Y-75221123D03*
X120338385Y-73616900D03*
X118246235Y-73414336D03*
%TD*%
D72*
%TO.C,Q26*%
X196575000Y-222750000D03*
X194675000Y-222750000D03*
X195625000Y-224625000D03*
%TD*%
D73*
%TO.C,R89*%
X276835759Y-73891306D03*
X277719873Y-75284448D03*
%TD*%
D74*
%TO.C,R74*%
X291324164Y-155965194D03*
X291834042Y-154395950D03*
%TD*%
D45*
%TO.C,R100*%
X220831040Y-33337357D03*
X219232878Y-32927019D03*
%TD*%
D75*
%TO.C,R29*%
X103467694Y-125277994D03*
X103571298Y-123631250D03*
%TD*%
D76*
%TO.C,R4*%
X196650000Y-30750000D03*
X195000000Y-30750000D03*
%TD*%
D77*
%TO.C,Q46*%
X255896957Y-52024872D03*
X257434089Y-53141664D03*
X257767621Y-51066362D03*
%TD*%
D57*
%TO.C,R46*%
X153391061Y-213642992D03*
X154836967Y-214437886D03*
%TD*%
D78*
%TO.C,LD29*%
X233002811Y-223043568D03*
D13*
X238581470Y-220834821D03*
D14*
X238184950Y-227982742D03*
%TD*%
D79*
%TO.C,R41*%
X127532226Y-191002075D03*
X126480476Y-189730729D03*
%TD*%
D80*
%TO.C,LD8*%
X122356930Y-60865465D03*
D13*
X118532386Y-65488545D03*
D14*
X115436322Y-59033749D03*
%TD*%
D81*
%TO.C,R96*%
X243608939Y-41857008D03*
X242163033Y-41062114D03*
%TD*%
D48*
%TO.C,R72*%
X287055915Y-167376661D03*
X287758451Y-165883697D03*
%TD*%
D82*
%TO.C,LD47*%
X249932037Y-40422721D03*
D13*
X244674197Y-37532199D03*
D14*
X250434516Y-33281466D03*
%TD*%
D83*
%TO.C,R95*%
X251508040Y-48836137D03*
X252842918Y-49805983D03*
%TD*%
D74*
%TO.C,R25*%
X107068071Y-101722084D03*
X107577949Y-100152840D03*
%TD*%
D84*
%TO.C,Q23*%
X161738348Y-215370127D03*
X159971773Y-214670690D03*
X160164827Y-216763739D03*
%TD*%
D85*
%TO.C,LD12*%
X99553448Y-105820839D03*
D13*
X98429160Y-111714563D03*
D14*
X92606437Y-107549723D03*
%TD*%
D64*
%TO.C,R37*%
X114031658Y-171365927D03*
X113329122Y-169872963D03*
%TD*%
D21*
%TO.C,R88*%
X279408529Y-74212795D03*
X278524415Y-72819653D03*
%TD*%
D86*
%TO.C,U2*%
X251114726Y-87074506D03*
X251574346Y-87534126D03*
X252033965Y-87993745D03*
X252493585Y-88453364D03*
X252953204Y-88912984D03*
X253412823Y-89372603D03*
X253872443Y-89832223D03*
D87*
X255127557Y-89832223D03*
X255587177Y-89372603D03*
X256046796Y-88912984D03*
X256506415Y-88453364D03*
X256966035Y-87993745D03*
X257425654Y-87534126D03*
X257885274Y-87074506D03*
D86*
X257885274Y-85819392D03*
X257425654Y-85359772D03*
X256966035Y-84900153D03*
X256506415Y-84440534D03*
X256046796Y-83980914D03*
X255587177Y-83521295D03*
X255127557Y-83061675D03*
D87*
X253872443Y-83061675D03*
X253412823Y-83521295D03*
X252953204Y-83980914D03*
X252493585Y-84440534D03*
X252033965Y-84900153D03*
X251574346Y-85359772D03*
X251114726Y-85819392D03*
D88*
X254500000Y-86446949D03*
%TD*%
D89*
%TO.C,J1*%
X231275000Y-129985000D03*
D90*
X228735000Y-129985000D03*
%TD*%
D91*
%TO.C,LD44*%
X278467614Y-65488545D03*
D13*
X274643070Y-60865465D03*
D14*
X281563678Y-59033749D03*
%TD*%
D92*
%TO.C,J3*%
X221500000Y-126750000D03*
D93*
X219000000Y-126750000D03*
X216500000Y-126750000D03*
%TD*%
D53*
%TO.C,R62*%
X246851274Y-211860504D03*
X248297180Y-211065610D03*
%TD*%
D94*
%TO.C,R77*%
X292473124Y-142113219D03*
X292163944Y-143733993D03*
%TD*%
D95*
%TO.C,LD45*%
X270033616Y-55956895D03*
D13*
X265659804Y-51849613D03*
D14*
X272296266Y-49164958D03*
%TD*%
D96*
%TO.C,LD26*%
X195500000Y-229053051D03*
D13*
X201500000Y-229053051D03*
D14*
X198500000Y-235553051D03*
%TD*%
D97*
%TO.C,Q24*%
X173009939Y-219286672D03*
X171169631Y-218814161D03*
X171623491Y-220866510D03*
%TD*%
D20*
%TO.C,R20*%
X115608911Y-77336807D03*
X114724797Y-78729949D03*
%TD*%
D98*
%TO.C,R68*%
X274419019Y-188154677D03*
X275470769Y-186883331D03*
%TD*%
D99*
%TO.C,Q47*%
X245953490Y-45428242D03*
X247618472Y-46343574D03*
X247689269Y-44242832D03*
%TD*%
D100*
%TO.C,R81*%
X293092773Y-118291807D03*
X293196377Y-119938551D03*
%TD*%
D101*
%TO.C,R67*%
X266083365Y-194606105D03*
X264880567Y-195735607D03*
%TD*%
D102*
%TO.C,R66*%
X266249661Y-197193545D03*
X267452459Y-196064043D03*
%TD*%
D103*
%TO.C,Q40*%
X292177997Y-111839678D03*
X292534022Y-113706024D03*
X294197798Y-112421511D03*
%TD*%
D104*
%TO.C,LD46*%
X260471490Y-47557466D03*
D13*
X255617388Y-44030755D03*
D14*
X261865043Y-40535500D03*
%TD*%
D73*
%TO.C,R38*%
X117591471Y-181287205D03*
X118475585Y-182680347D03*
%TD*%
D105*
%TO.C,LD31*%
X255617388Y-211469245D03*
D13*
X260471490Y-207942534D03*
D14*
X261865043Y-214964500D03*
%TD*%
D106*
%TO.C,Q39*%
X293433411Y-123706103D03*
X293552713Y-125602354D03*
X295364362Y-124536496D03*
%TD*%
D94*
%TO.C,R26*%
X102871482Y-111391244D03*
X102562302Y-113012018D03*
%TD*%
D98*
%TO.C,R19*%
X123070258Y-69891517D03*
X124122008Y-68620171D03*
%TD*%
D66*
%TO.C,R70*%
X281391089Y-178163193D03*
X282275203Y-176770051D03*
%TD*%
D107*
%TO.C,Q5*%
X154420292Y-43573490D03*
X156085274Y-42658158D03*
X154349495Y-41472748D03*
%TD*%
D108*
%TO.C,LD28*%
X220787295Y-226616499D03*
D13*
X226598794Y-225124359D03*
D14*
X225309528Y-232166220D03*
%TD*%
D109*
%TO.C,Q29*%
X231682012Y-216787406D03*
X229915437Y-217486843D03*
X231488958Y-218880455D03*
%TD*%
D68*
%TO.C,R56*%
X212492736Y-223753259D03*
X214129726Y-223546459D03*
%TD*%
D110*
%TO.C,R32*%
X103564792Y-147743219D03*
X103873972Y-149363993D03*
%TD*%
D111*
%TO.C,R63*%
X247333672Y-209312997D03*
X245887766Y-210107891D03*
%TD*%
D112*
%TO.C,LD34*%
X282425515Y-184563873D03*
D13*
X285640476Y-179497905D03*
D14*
X289521127Y-185513763D03*
%TD*%
D113*
%TO.C,LD48*%
X238581470Y-34665179D03*
D13*
X233002811Y-32456432D03*
D14*
X238184950Y-27517258D03*
%TD*%
D114*
%TO.C,C1*%
X237000000Y-111250000D03*
X237000000Y-109700000D03*
%TD*%
D115*
%TO.C,R49*%
X166782386Y-217367202D03*
X165248254Y-216759796D03*
%TD*%
D116*
%TO.C,Q3*%
X176738984Y-35255872D03*
X178579292Y-34783361D03*
X177192844Y-33203523D03*
%TD*%
D117*
%TO.C,Q10*%
X113361056Y-85559176D03*
X114170037Y-83840004D03*
X112068996Y-83901254D03*
%TD*%
D76*
%TO.C,R55*%
X202000000Y-222750000D03*
X200350000Y-222750000D03*
%TD*%
D118*
%TO.C,LD42*%
X291439078Y-87331740D03*
D13*
X288884404Y-81902777D03*
D14*
X296043116Y-81849693D03*
%TD*%
D101*
%TO.C,R16*%
X130750339Y-58306455D03*
X129547541Y-59435957D03*
%TD*%
D119*
%TO.C,LD4*%
X163997189Y-32456432D03*
D13*
X158418530Y-34665179D03*
D14*
X158815050Y-27517258D03*
%TD*%
D102*
%TO.C,R17*%
X130916635Y-60893895D03*
X132119433Y-59764393D03*
%TD*%
D100*
%TO.C,R30*%
X101807570Y-135687030D03*
X101911174Y-137333774D03*
%TD*%
D120*
%TO.C,Q44*%
X272925799Y-68677958D03*
X274136905Y-70141934D03*
X274976064Y-68214776D03*
%TD*%
D121*
%TO.C,Q36*%
X288255512Y-158937398D03*
X287668379Y-160744405D03*
X289745176Y-160420308D03*
%TD*%
D122*
%TO.C,R87*%
X282968342Y-84134073D03*
X283670878Y-85627037D03*
%TD*%
D123*
%TO.C,LD9*%
X114574485Y-70936127D03*
D13*
X111359524Y-76002095D03*
D14*
X107478873Y-69986237D03*
%TD*%
D124*
%TO.C,Q42*%
X285278194Y-89042759D03*
X286087175Y-90761931D03*
X287379235Y-89104009D03*
%TD*%
D125*
%TO.C,Q27*%
X208496836Y-222242163D03*
X206611818Y-222480296D03*
X207789327Y-224221445D03*
%TD*%
D126*
%TO.C,Q13*%
X103808332Y-119863700D03*
X103927634Y-117967449D03*
X101996683Y-118797842D03*
%TD*%
D111*
%TO.C,R12*%
X150148726Y-43639496D03*
X148702820Y-44434390D03*
%TD*%
D127*
%TO.C,LD35*%
X288884404Y-173597223D03*
D13*
X291439078Y-168168260D03*
D14*
X296043116Y-173650307D03*
%TD*%
D128*
%TO.C,LD38*%
X299414781Y-137104951D03*
D13*
X299791525Y-131116791D03*
D14*
X306090327Y-134519009D03*
%TD*%
D129*
%TO.C,R101*%
X218735498Y-34864185D03*
X220333660Y-35274523D03*
%TD*%
D69*
%TO.C,R69*%
X273929742Y-185608483D03*
X272877992Y-186879829D03*
%TD*%
D130*
%TO.C,R75*%
X289931929Y-153777916D03*
X289422051Y-155347160D03*
%TD*%
D131*
%TO.C,R52*%
X188178088Y-224216992D03*
X189815078Y-224423792D03*
%TD*%
D54*
%TO.C,R84*%
X290180801Y-96015898D03*
X289670923Y-94446654D03*
%TD*%
D132*
%TO.C,LD43*%
X285640476Y-76002095D03*
D13*
X282425515Y-70936127D03*
D14*
X289521127Y-69986237D03*
%TD*%
D38*
%TO.C,R99*%
X230217614Y-38132798D03*
X231751746Y-38740204D03*
%TD*%
D133*
%TO.C,LD33*%
X274643070Y-194634535D03*
D13*
X278467614Y-190011455D03*
D14*
X281563678Y-196466251D03*
%TD*%
D134*
%TO.C,R22*%
X109944085Y-88123339D03*
X109241549Y-89616303D03*
%TD*%
D135*
%TO.C,LD19*%
X118532386Y-190011455D03*
D13*
X122356930Y-194634535D03*
D14*
X115436322Y-196466251D03*
%TD*%
D136*
%TO.C,R102*%
X208821912Y-31283008D03*
X207184922Y-31076208D03*
%TD*%
D137*
%TO.C,Q18*%
X117257380Y-177028214D03*
X116239309Y-175423991D03*
X115165230Y-177230778D03*
%TD*%
D60*
%TO.C,R79*%
X293532306Y-130222006D03*
X293428702Y-131868750D03*
%TD*%
D138*
%TO.C,Q32*%
X262128710Y-198319773D03*
X260743670Y-199620413D03*
X262719716Y-200336909D03*
%TD*%
D139*
%TO.C,LD17*%
X105560922Y-168168260D03*
D13*
X108115596Y-173597223D03*
D14*
X100956884Y-173650307D03*
%TD*%
D140*
%TO.C,R85*%
X287768810Y-95064688D03*
X288278688Y-96633932D03*
%TD*%
D83*
%TO.C,R44*%
X142981512Y-207312051D03*
X144316390Y-208281897D03*
%TD*%
D141*
%TO.C,Q12*%
X105543420Y-108057872D03*
X105899445Y-106191526D03*
X103879644Y-106773359D03*
%TD*%
D142*
%TO.C,Q37*%
X291456580Y-147442128D03*
X291100555Y-149308474D03*
X293120356Y-148726641D03*
%TD*%
D143*
%TO.C,F1*%
X231500000Y-111250000D03*
X233075000Y-111250000D03*
%TD*%
D136*
%TO.C,R53*%
X190065745Y-222439563D03*
X188428755Y-222232763D03*
%TD*%
D144*
%TO.C,LD20*%
X126966384Y-199543105D03*
D13*
X131340196Y-203650387D03*
D14*
X124703734Y-206335042D03*
%TD*%
D131*
%TO.C,R103*%
X206934255Y-33060437D03*
X208571245Y-33267237D03*
%TD*%
D145*
%TO.C,LD32*%
X265659804Y-203650387D03*
D13*
X270033616Y-199543105D03*
D14*
X272296266Y-206335042D03*
%TD*%
D146*
%TO.C,R15*%
X139828841Y-52950635D03*
X141163719Y-51980789D03*
%TD*%
D147*
%TO.C,LD24*%
X170401206Y-225124359D03*
D13*
X176212705Y-226616499D03*
D14*
X171690472Y-232166220D03*
%TD*%
D10*
%TO.C,R60*%
X235928167Y-217257289D03*
X237462299Y-216649883D03*
%TD*%
D122*
%TO.C,R36*%
X111519468Y-170724521D03*
X112222004Y-172217485D03*
%TD*%
D96*
%TO.C,LD1*%
X201500000Y-26446949D03*
D13*
X195500000Y-26446949D03*
D14*
X198500000Y-19946949D03*
%TD*%
D148*
%TO.C,Q7*%
X134871290Y-57180227D03*
X136256330Y-55879587D03*
X134280284Y-55163091D03*
%TD*%
D149*
%TO.C,LD10*%
X108115596Y-81902777D03*
D13*
X105560922Y-87331740D03*
D14*
X100956884Y-81849693D03*
%TD*%
D150*
%TO.C,Q20*%
X132064761Y-195684267D03*
X130679721Y-194383627D03*
X130088715Y-196400763D03*
%TD*%
D151*
%TO.C,R6*%
X184507264Y-31746741D03*
X182870274Y-31953541D03*
%TD*%
D67*
%TO.C,R2*%
X257000000Y-96336949D03*
X257000000Y-94686949D03*
%TD*%
D152*
%TO.C,LD25*%
X182827017Y-227878246D03*
D13*
X188779705Y-228630246D03*
D14*
X184988695Y-234702992D03*
%TD*%
D153*
%TO.C,LD27*%
X208220295Y-228630246D03*
D13*
X214172983Y-227878246D03*
D14*
X212011305Y-234702992D03*
%TD*%
D130*
%TO.C,R24*%
X105675836Y-99534806D03*
X105165958Y-101104050D03*
%TD*%
D154*
%TO.C,LD3*%
X176212705Y-28883501D03*
D13*
X170401206Y-30375641D03*
D14*
X171690472Y-23333780D03*
%TD*%
D155*
%TO.C,LD40*%
X298570840Y-111714563D03*
D13*
X297446552Y-105820839D03*
D14*
X304393563Y-107549723D03*
%TD*%
D156*
%TO.C,Q8*%
X126528283Y-65711483D03*
X127739389Y-64247507D03*
X125689124Y-63784325D03*
%TD*%
D157*
%TO.C,Q35*%
X283638944Y-169940824D03*
X282829963Y-171659996D03*
X284931004Y-171598746D03*
%TD*%
D23*
%TO.C,R31*%
X103907227Y-137208193D03*
X103803623Y-135561449D03*
%TD*%
D158*
%TO.C,Q33*%
X270471717Y-189788517D03*
X269260611Y-191252493D03*
X271310876Y-191715675D03*
%TD*%
D114*
%TO.C,C2*%
X239510000Y-111250000D03*
X239510000Y-109700000D03*
%TD*%
D115*
%TO.C,R98*%
X232487995Y-36880651D03*
X230953863Y-36273245D03*
%TD*%
D134*
%TO.C,R73*%
X285948797Y-165032138D03*
X285246261Y-166525102D03*
%TD*%
D151*
%TO.C,R57*%
X213879059Y-221562230D03*
X212242069Y-221769030D03*
%TD*%
D29*
%TO.C,R91*%
X269467774Y-64497925D03*
X270519524Y-65769271D03*
%TD*%
D146*
%TO.C,R64*%
X257011851Y-205137245D03*
X258346729Y-204167399D03*
%TD*%
D159*
%TO.C,LD50*%
X214172983Y-27621754D03*
D13*
X208220295Y-26869754D03*
D14*
X212011305Y-20797008D03*
%TD*%
D110*
%TO.C,R83*%
X291161454Y-106510770D03*
X291470634Y-108131544D03*
%TD*%
D160*
%TO.C,Q30*%
X242579708Y-211926510D03*
X240914726Y-212841842D03*
X242650505Y-214027252D03*
%TD*%
D11*
%TO.C,R42*%
X133447523Y-199726370D03*
X134650321Y-200855872D03*
%TD*%
D51*
%TO.C,R8*%
X172585202Y-34257510D03*
X170987040Y-34667848D03*
%TD*%
D161*
%TO.C,Q1*%
X200425000Y-32750000D03*
X202325000Y-32750000D03*
X201375000Y-30875000D03*
%TD*%
D162*
%TO.C,C5*%
X254500000Y-94671949D03*
X254500000Y-96221949D03*
%TD*%
D163*
%TO.C,U1*%
X190760000Y-98766949D03*
D164*
X190760000Y-101306949D03*
X190760000Y-103846949D03*
X190760000Y-106386949D03*
X190760000Y-108926949D03*
X190760000Y-111466949D03*
X190760000Y-114006949D03*
X190760000Y-116546949D03*
X190760000Y-119086949D03*
X190760000Y-121626949D03*
X190760000Y-124166949D03*
X190760000Y-126706949D03*
X190760000Y-129246949D03*
X190760000Y-131786949D03*
X190760000Y-134326949D03*
X190760000Y-136866949D03*
X190760000Y-139406949D03*
X190760000Y-141946949D03*
X190760000Y-144486949D03*
X190760000Y-147026949D03*
X190760000Y-149566949D03*
X190760000Y-152106949D03*
X190760000Y-154646949D03*
X190760000Y-157186949D03*
X206000000Y-157186949D03*
X206000000Y-154646949D03*
X206000000Y-152106949D03*
X206000000Y-149566949D03*
X206000000Y-147026949D03*
X206000000Y-144486949D03*
X206000000Y-141946949D03*
X206000000Y-139406949D03*
X206000000Y-136866949D03*
X206000000Y-134326949D03*
X206000000Y-131786949D03*
X206000000Y-129246949D03*
X206000000Y-126706949D03*
X206000000Y-124166949D03*
X206000000Y-121626949D03*
X206000000Y-119086949D03*
X206000000Y-116546949D03*
X206000000Y-114006949D03*
X206000000Y-111466949D03*
X206000000Y-108926949D03*
X206000000Y-106386949D03*
X206000000Y-103846949D03*
X206000000Y-101306949D03*
X206000000Y-98766949D03*
%TD*%
D63*
%TO.C,R82*%
X293435208Y-107756781D03*
X293126028Y-106136007D03*
%TD*%
D165*
%TO.C,LD37*%
X297446552Y-149679161D03*
D13*
X298570840Y-143785437D03*
D14*
X304393563Y-147950277D03*
%TD*%
D58*
%TO.C,R10*%
X161071833Y-38242711D03*
X159537701Y-38850117D03*
%TD*%
D166*
%TO.C,LD2*%
X188779705Y-26869754D03*
D13*
X182827017Y-27621754D03*
D14*
X184988695Y-20797008D03*
%TD*%
D75*
%TO.C,R78*%
X295424756Y-131994331D03*
X295528360Y-130347587D03*
%TD*%
D167*
%TO.C,Q21*%
X141103043Y-203475128D03*
X139565911Y-202358336D03*
X139232379Y-204433638D03*
%TD*%
D168*
%TO.C,Q14*%
X103566589Y-131793897D03*
X103447287Y-129897646D03*
X101635638Y-130963504D03*
%TD*%
D31*
%TO.C,R58*%
X224414798Y-221242490D03*
X226012960Y-220832152D03*
%TD*%
D169*
%TO.C,Q49*%
X223990061Y-36213328D03*
X225830369Y-36685839D03*
X225376509Y-34633490D03*
%TD*%
D79*
%TO.C,R90*%
X272060551Y-64494423D03*
X271008801Y-63223077D03*
%TD*%
D170*
%TO.C,Q43*%
X279742620Y-78471786D03*
X280760691Y-80076009D03*
X281834770Y-78269222D03*
%TD*%
D16*
%TO.C,R65*%
X257171159Y-202549365D03*
X255836281Y-203519211D03*
%TD*%
D129*
%TO.C,R50*%
X176168960Y-222162643D03*
X177767122Y-222572981D03*
%TD*%
D81*
%TO.C,R47*%
X155800474Y-212685273D03*
X154354568Y-211890379D03*
%TD*%
D171*
%TO.C,Q2*%
X188503164Y-33257837D03*
X190388182Y-33019704D03*
X189210673Y-31278555D03*
%TD*%
D172*
%TO.C,LD14*%
X97208475Y-131116791D03*
D13*
X97585219Y-137104951D03*
D14*
X90909673Y-134519009D03*
%TD*%
D140*
%TO.C,R34*%
X106819199Y-159484102D03*
X107329077Y-161053346D03*
%TD*%
D173*
%TO.C,LD7*%
X131340196Y-51849613D03*
D13*
X126966384Y-55956895D03*
D14*
X124703734Y-49164958D03*
%TD*%
D174*
%TO.C,J4*%
X216500000Y-134246949D03*
D93*
X219000000Y-134246949D03*
X221500000Y-134246949D03*
%TD*%
M02*
