M48
; DRILL file {KiCad 9.0.6} date 2025-12-10T00:31:55+0100
; FORMAT={-:-/ absolute / inch / decimal}
; #@! TF.CreationDate,2025-12-10T00:31:55+01:00
; #@! TF.GenerationSoftware,Kicad,Pcbnew,9.0.6
; #@! TF.FileFunction,Plated,1,2,PTH
FMAT,2
INCH
; #@! TA.AperFunction,Plated,PTH,ViaDrill
T1C0.0118
; #@! TA.AperFunction,Plated,PTH,ComponentDrill
T2C0.0315
; #@! TA.AperFunction,Plated,PTH,ComponentDrill
T3C0.0374
; #@! TA.AperFunction,Plated,PTH,ComponentDrill
T4C0.0433
; #@! TA.AperFunction,Plated,PTH,ComponentDrill
T5C0.0469
; #@! TA.AperFunction,Plated,PTH,ViaDrill
T6C0.2165
; #@! TA.AperFunction,Plated,PTH,ComponentDrill
T7C0.2165
%
G90
G05
T1
X3.997Y-5.0384
X4.0379Y-4.5669
X4.0388Y-5.5084
X4.1338Y-5.9646
X4.1404Y-4.0748
X4.2849Y-6.404
X4.3008Y-3.622
X4.4883Y-6.8503
X4.5167Y-3.189
X4.7302Y-7.258
X4.7846Y-2.7953
X5.0239Y-7.6336
X5.1003Y-2.4409
X5.3836Y-2.0962
X5.3937Y-7.9077
X5.7803Y-1.8236
X5.7874Y-8.2001
X6.2008Y-8.4424
X6.2056Y-1.619
X6.2126Y-5.3937
X6.2126Y-5.6181
X6.5354Y-3.7362
X6.6339Y-8.631
X6.6664Y-1.4302
X6.748Y-3.5236
X7.1063Y-8.7627
X7.1324Y-1.3253
X7.1654Y-3.4016
X7.3504Y-3.4016
X7.5769Y-1.2187
X7.5985Y-8.8356
X8.0314Y-1.2235
X8.0628Y-8.8306
X8.2008Y-7.2362
X8.437Y-7.2362
X8.5236Y-1.2963
X8.546Y-8.7429
X8.9941Y-8.6201
X8.9961Y-1.4281
X9.2717Y-4.311
X9.2756Y-3.2205
X9.4145Y-8.4499
X9.4291Y-3.0669
X9.4488Y-1.6166
X9.4803Y-6.6496
X9.563Y-6.5669
X9.809Y-3.6476
X9.8425Y-1.859
X9.8595Y-8.2256
X10.0197Y-3.4055
X10.0197Y-3.8583
X10.0591Y-3.6713
X10.2165Y-2.1513
X10.2365Y-7.9727
X10.2953Y-3.7106
X10.5318Y-7.5987
X10.5962Y-2.4156
X10.8268Y-3.7598
X10.8453Y-7.2441
X10.8997Y-2.8011
X11.1132Y-6.8701
X11.1416Y-3.2088
X11.3291Y-6.3976
X11.3351Y-3.6452
X11.4895Y-5.9843
X11.4961Y-4.0945
X11.5911Y-4.5506
X11.592Y-5.4724
X11.6034Y-4.9911
T2
X3.8271Y-4.897
X3.8271Y-5.1621
X3.8419Y-4.6612
X3.8419Y-5.3978
X3.8752Y-4.3982
X3.8752Y-5.6608
X3.9194Y-4.1662
X3.9194Y-5.8929
X3.9854Y-3.9094
X3.9854Y-6.1497
X4.0584Y-3.6847
X4.0584Y-6.3743
X4.1559Y-3.4383
X4.1559Y-6.6208
X4.2565Y-3.2245
X4.2565Y-6.8345
X4.3842Y-2.9922
X4.3842Y-7.0668
X4.5108Y-2.7928
X4.5108Y-7.2663
X4.6666Y-2.5783
X4.6666Y-7.4808
X4.8172Y-2.3963
X4.8172Y-7.6628
X4.9987Y-2.203
X4.9987Y-7.856
X5.1709Y-2.0413
X5.1709Y-8.0177
X5.3751Y-1.8723
X5.3751Y-8.1867
X5.5662Y-1.7335
X5.5662Y-8.3256
X5.7901Y-1.5914
X5.7901Y-8.4676
X5.9971Y-1.4776
X5.9971Y-8.5814
X6.237Y-1.3648
X6.237Y-8.6943
X6.4566Y-1.2778
X6.4566Y-8.7812
X6.7087Y-1.1959
X6.7087Y-8.8632
X6.9375Y-1.1371
X6.9375Y-8.9219
X7.1979Y-1.0875
X7.1979Y-8.9716
X7.4323Y-1.0579
X7.4323Y-9.0012
X7.6969Y-1.0412
X7.6969Y-9.0178
X7.9331Y-1.0412
X7.9331Y-9.0178
X8.1976Y-1.0579
X8.1976Y-9.0012
X8.432Y-1.0875
X8.432Y-8.9716
X8.6924Y-1.1371
X8.6924Y-8.9219
X8.9212Y-1.1959
X8.9212Y-8.8632
X9.1733Y-1.2778
X9.1733Y-8.7812
X9.393Y-1.3648
X9.393Y-8.6943
X9.6328Y-1.4776
X9.6328Y-8.5814
X9.8398Y-1.5914
X9.8398Y-8.4676
X10.0637Y-1.7335
X10.0637Y-8.3256
X10.2548Y-1.8723
X10.2548Y-8.1867
X10.459Y-2.0413
X10.459Y-8.0177
X10.6312Y-2.203
X10.6312Y-7.856
X10.8127Y-2.3963
X10.8127Y-7.6628
X10.9633Y-2.5783
X10.9633Y-7.4808
X11.1191Y-2.7928
X11.1191Y-7.2663
X11.2457Y-2.9922
X11.2457Y-7.0668
X11.3734Y-3.2245
X11.3734Y-6.8345
X11.474Y-3.4383
X11.474Y-6.6208
X11.5716Y-3.6847
X11.5716Y-6.3743
X11.6446Y-3.9094
X11.6446Y-6.1497
X11.7105Y-4.1662
X11.7105Y-5.8929
X11.7548Y-4.3982
X11.7548Y-5.6608
X11.788Y-4.6612
X11.788Y-5.3978
X11.8028Y-4.897
X11.8028Y-5.1621
T3
X8.5236Y-4.9902
X8.5236Y-5.2853
X8.622Y-4.9902
X8.622Y-5.2853
X8.7205Y-4.9902
X8.7205Y-5.2853
T4
X7.5102Y-3.8885
X7.5102Y-3.9885
X7.5102Y-4.0885
X7.5102Y-4.1885
X7.5102Y-4.2885
X7.5102Y-4.3885
X7.5102Y-4.4885
X7.5102Y-4.5885
X7.5102Y-4.6885
X7.5102Y-4.7885
X7.5102Y-4.8885
X7.5102Y-4.9885
X7.5102Y-5.0885
X7.5102Y-5.1885
X7.5102Y-5.2885
X7.5102Y-5.3885
X7.5102Y-5.4885
X7.5102Y-5.5885
X7.5102Y-5.6885
X7.5102Y-5.7885
X7.5102Y-5.8885
X7.5102Y-5.9885
X7.5102Y-6.0885
X7.5102Y-6.1885
X8.1102Y-3.8885
X8.1102Y-3.9885
X8.1102Y-4.0885
X8.1102Y-4.1885
X8.1102Y-4.2885
X8.1102Y-4.3885
X8.1102Y-4.4885
X8.1102Y-4.5885
X8.1102Y-4.6885
X8.1102Y-4.7885
X8.1102Y-4.8885
X8.1102Y-4.9885
X8.1102Y-5.0885
X8.1102Y-5.1885
X8.1102Y-5.2885
X8.1102Y-5.3885
X8.1102Y-5.4885
X8.1102Y-5.5885
X8.1102Y-5.6885
X8.1102Y-5.7885
X8.1102Y-5.8885
X8.1102Y-5.9885
X8.1102Y-6.0885
X8.1102Y-6.1885
T5
X9.0053Y-5.1175
X9.1053Y-5.1175
T6
X5.4921Y-4.9961
X8.9488Y-3.0354
X9.0236Y-7.0197
T7
X3.5791Y-4.763
X3.5791Y-5.296
X3.6459Y-4.2342
X3.6459Y-5.8248
X3.7785Y-3.718
X3.7785Y-6.3411
X3.9747Y-3.2224
X3.9747Y-6.8366
X4.2315Y-2.7554
X4.2315Y-7.3037
X4.5447Y-2.3242
X4.5447Y-7.7349
X4.9096Y-1.9356
X4.9096Y-8.1234
X5.3203Y-1.5959
X5.3203Y-8.4632
X5.7703Y-1.3103
X5.7703Y-8.7488
X6.2526Y-1.0834
X6.2526Y-8.9757
X6.7595Y-0.9187
X6.7595Y-9.1404
X7.283Y-0.8188
X7.283Y-9.2403
X7.815Y-0.7853
X7.815Y-9.2737
X8.3469Y-0.8188
X8.3469Y-9.2403
X8.8705Y-0.9187
X8.8705Y-9.1404
X9.3774Y-1.0834
X9.3774Y-8.9757
X9.8596Y-1.3103
X9.8596Y-8.7488
X10.3096Y-1.5959
X10.3096Y-8.4632
X10.7203Y-1.9356
X10.7203Y-8.1234
X11.0852Y-2.3242
X11.0852Y-7.7349
X11.3985Y-2.7554
X11.3985Y-7.3037
X11.6552Y-3.2224
X11.6552Y-6.8366
X11.8514Y-3.718
X11.8514Y-6.3411
X11.984Y-4.2342
X11.984Y-5.8248
X12.0508Y-4.763
X12.0508Y-5.296
M30
