M48
; DRILL file {KiCad 8.0.7} date 2025-01-10T02:59:42+0100
; FORMAT={-:-/ absolute / inch / decimal}
; #@! TF.CreationDate,2025-01-10T02:59:42+01:00
; #@! TF.GenerationSoftware,Kicad,Pcbnew,8.0.7
; #@! TF.FileFunction,Plated,1,2,PTH
FMAT,2
INCH
; #@! TA.AperFunction,Plated,PTH,ViaDrill
T1C0.0118
; #@! TA.AperFunction,Plated,PTH,ComponentDrill
T2C0.0374
; #@! TA.AperFunction,Plated,PTH,ComponentDrill
T3C0.0394
; #@! TA.AperFunction,Plated,PTH,ComponentDrill
T4C0.0433
; #@! TA.AperFunction,Plated,PTH,ComponentDrill
T5C0.2402
; #@! TA.AperFunction,Plated,PTH,ComponentDrill
T6C0.2520
%
G90
G05
T1
X3.3957Y-5.6201
X3.4055Y-5.8858
X3.4941Y-4.3307
X3.7697Y-4.813
X3.8484Y-4.0256
X3.9764Y-4.3406
X4.1535Y-6.1811
X4.375Y-4.3258
X4.5472Y-6.1614
X4.7736Y-4.3406
X4.9409Y-6.1614
X5.1673Y-4.3307
X5.3346Y-6.1614
X5.5709Y-4.3406
X5.7283Y-6.1614
X5.9547Y-4.3307
X6.122Y-6.1516
X6.3583Y-4.3307
X6.5256Y-6.1614
X6.7421Y-4.3307
X6.8996Y-6.1614
X7.1457Y-4.3307
X7.3031Y-6.1516
X7.5394Y-4.3307
X7.6772Y-6.1614
X7.9035Y-4.3307
X8.0709Y-6.1614
X8.3169Y-4.3209
X8.4744Y-6.1614
X8.7106Y-4.3307
X8.8681Y-6.1516
X9.1142Y-4.3209
X9.1831Y-5.2559
X9.252Y-6.1811
X9.5079Y-4.3209
X9.6555Y-6.1713
X9.9114Y-4.3307
X10.0098Y-5.374
X10.0492Y-6.1713
X10.1102Y-5.3911
X10.2953Y-4.3602
X10.4429Y-5.3642
X10.4429Y-6.1713
X10.4528Y-5.2638
X10.6299Y-5.3248
X10.6988Y-4.3406
X10.8366Y-6.1614
X11.1073Y-4.3455
X11.2303Y-6.1713
X11.4764Y-4.3504
X11.624Y-6.1614
X11.8898Y-4.3307
X12.0276Y-6.1516
X12.2736Y-4.3406
X12.4114Y-6.1516
X12.6772Y-4.3602
X12.815Y-6.1516
X13.0709Y-4.3406
X13.2087Y-6.1614
X13.5138Y-6.2894
T2
X2.6575Y-4.8819
X2.6673Y-4.5079
X2.7559Y-4.8819
X2.7657Y-4.5079
X2.8543Y-4.8819
X2.8642Y-4.5079
X2.9528Y-4.8819
X3.0512Y-4.8819
T4
X7.2386Y-5.0098
X7.2386Y-5.6098
X7.3386Y-5.0098
X7.3386Y-5.6098
X7.4386Y-5.0098
X7.4386Y-5.6098
X7.5386Y-5.0098
X7.5386Y-5.6098
X7.6386Y-5.0098
X7.6386Y-5.6098
X7.7386Y-5.0098
X7.7386Y-5.6098
X7.8386Y-5.0098
X7.8386Y-5.6098
X7.9386Y-5.0098
X7.9386Y-5.6098
X8.0386Y-5.0098
X8.0386Y-5.6098
X8.1386Y-5.0098
X8.1386Y-5.6098
X8.2386Y-5.0098
X8.2386Y-5.6098
X8.3386Y-5.0098
X8.3386Y-5.6098
X8.4386Y-5.0098
X8.4386Y-5.6098
X8.5386Y-5.0098
X8.5386Y-5.6098
X8.6386Y-5.0098
X8.6386Y-5.6098
X8.7386Y-5.0098
X8.7386Y-5.6098
X8.8386Y-5.0098
X8.8386Y-5.6098
X8.9386Y-5.0098
X8.9386Y-5.6098
X9.0386Y-5.0098
X9.0386Y-5.6098
X9.1386Y-5.0098
X9.1386Y-5.6098
X9.2386Y-5.0098
X9.2386Y-5.6098
X9.3386Y-5.0098
X9.3386Y-5.6098
X9.4386Y-5.0098
X9.4386Y-5.6098
X9.5386Y-5.0098
X9.5386Y-5.6098
T5
X3.8199Y-3.7992
X3.8484Y-6.6831
X4.2136Y-3.7992
X4.2421Y-6.6831
X4.6073Y-3.7992
X4.6358Y-6.6831
X5.003Y-3.7992
X5.0295Y-6.6831
X5.3967Y-3.7992
X5.4232Y-6.6831
X5.7904Y-3.7992
X5.8169Y-6.6831
X6.1841Y-3.7992
X6.2106Y-6.6831
X6.5778Y-3.7992
X6.6043Y-6.6831
X6.9715Y-3.7992
X6.998Y-6.6831
X7.3652Y-3.7992
X7.3917Y-6.6831
X7.7608Y-3.7992
X7.7854Y-6.6831
X8.1545Y-3.7992
X8.1791Y-6.6831
X8.5561Y-3.7992
X8.5728Y-6.6831
X8.9498Y-3.7992
X8.9665Y-6.6831
X9.3455Y-3.7992
X9.3602Y-6.6831
X9.747Y-3.7992
X9.7539Y-6.6831
X10.1407Y-3.7992
X10.1476Y-6.6831
X10.5344Y-3.7992
X10.5413Y-6.6831
X10.9281Y-3.7992
X10.935Y-6.6831
X11.3219Y-3.7992
X11.3287Y-6.6831
X11.7156Y-3.7992
X11.7224Y-6.6831
X12.1093Y-3.7992
X12.1161Y-6.6831
X12.503Y-3.7992
X12.5098Y-6.6831
X12.8967Y-3.7992
X12.9035Y-6.6831
X13.2904Y-3.7992
X13.2972Y-6.6831
T6
X3.2972Y-6.6142
X3.3071Y-3.8484
X13.8484Y-3.8484
X13.8484Y-6.6142
T3
G00X2.8642Y-5.2461
M15
G01X2.8642Y-5.3248
M16
G05
G00X2.8642Y-5.7972
M15
G01X2.8642Y-5.876
M16
G05
G00X2.9429Y-5.4705
M15
G01X3.0217Y-5.4705
M16
G05
G00X2.9429Y-6.0217
M15
G01X3.0217Y-6.0217
M16
G05
G00X3.1004Y-5.2461
M15
G01X3.1004Y-5.3248
M16
G05
G00X3.1004Y-5.7972
M15
G01X3.1004Y-5.876
M16
G05
M30
