%TF.GenerationSoftware,KiCad,Pcbnew,8.0.7*%
%TF.CreationDate,2025-01-10T02:59:42+01:00*%
%TF.ProjectId,laserboard_2.0,6c617365-7262-46f6-9172-645f322e302e,rev?*%
%TF.SameCoordinates,Original*%
%TF.FileFunction,Soldermask,Top*%
%TF.FilePolarity,Negative*%
%FSLAX46Y46*%
G04 Gerber Fmt 4.6, Leading zero omitted, Abs format (unit mm)*
G04 Created by KiCad (PCBNEW 8.0.7) date 2025-01-10 02:59:42*
%MOMM*%
%LPD*%
G01*
G04 APERTURE LIST*
G04 Aperture macros list*
%AMRoundRect*
0 Rectangle with rounded corners*
0 $1 Rounding radius*
0 $2 $3 $4 $5 $6 $7 $8 $9 X,Y pos of 4 corners*
0 Add a 4 corners polygon primitive as box body*
4,1,4,$2,$3,$4,$5,$6,$7,$8,$9,$2,$3,0*
0 Add four circle primitives for the rounded corners*
1,1,$1+$1,$2,$3*
1,1,$1+$1,$4,$5*
1,1,$1+$1,$6,$7*
1,1,$1+$1,$8,$9*
0 Add four rect primitives between the rounded corners*
20,1,$1+$1,$2,$3,$4,$5,0*
20,1,$1+$1,$4,$5,$6,$7,0*
20,1,$1+$1,$6,$7,$8,$9,0*
20,1,$1+$1,$8,$9,$2,$3,0*%
%AMRotRect*
0 Rectangle, with rotation*
0 The origin of the aperture is its center*
0 $1 length*
0 $2 width*
0 $3 Rotation angle, in degrees counterclockwise*
0 Add horizontal line*
21,1,$1,$2,0,0,$3*%
G04 Aperture macros list end*
%ADD10RoundRect,0.200000X-0.200000X-0.275000X0.200000X-0.275000X0.200000X0.275000X-0.200000X0.275000X0*%
%ADD11RoundRect,0.150000X-0.150000X0.587500X-0.150000X-0.587500X0.150000X-0.587500X0.150000X0.587500X0*%
%ADD12RoundRect,0.200000X0.200000X0.275000X-0.200000X0.275000X-0.200000X-0.275000X0.200000X-0.275000X0*%
%ADD13R,2.000000X2.000000*%
%ADD14C,2.286000*%
%ADD15C,6.500000*%
%ADD16RoundRect,0.150000X0.150000X-0.587500X0.150000X0.587500X-0.150000X0.587500X-0.150000X-0.587500X0*%
%ADD17RoundRect,0.225000X-0.225000X-0.250000X0.225000X-0.250000X0.225000X0.250000X-0.225000X0.250000X0*%
%ADD18RoundRect,0.225000X-0.250000X0.225000X-0.250000X-0.225000X0.250000X-0.225000X0.250000X0.225000X0*%
%ADD19RoundRect,0.200000X0.275000X-0.200000X0.275000X0.200000X-0.275000X0.200000X-0.275000X-0.200000X0*%
%ADD20RoundRect,0.075000X-0.256326X-0.362392X0.362392X0.256326X0.256326X0.362392X-0.362392X-0.256326X0*%
%ADD21RoundRect,0.075000X0.256326X-0.362392X0.362392X-0.256326X-0.256326X0.362392X-0.362392X0.256326X0*%
%ADD22RotRect,4.250000X4.250000X45.000000*%
%ADD23R,3.500000X3.500000*%
%ADD24RoundRect,0.750000X-0.750000X-1.000000X0.750000X-1.000000X0.750000X1.000000X-0.750000X1.000000X0*%
%ADD25RoundRect,0.875000X-0.875000X-0.875000X0.875000X-0.875000X0.875000X0.875000X-0.875000X0.875000X0*%
%ADD26RoundRect,0.250000X0.600000X0.725000X-0.600000X0.725000X-0.600000X-0.725000X0.600000X-0.725000X0*%
%ADD27O,1.700000X1.950000*%
%ADD28RoundRect,0.218750X-0.218750X-0.256250X0.218750X-0.256250X0.218750X0.256250X-0.218750X0.256250X0*%
%ADD29R,1.600000X1.600000*%
%ADD30C,1.600000*%
G04 APERTURE END LIST*
D10*
%TO.C,R86*%
X254175000Y-108000000D03*
X255825000Y-108000000D03*
%TD*%
D11*
%TO.C,Q16*%
X246500000Y-158625000D03*
X244600000Y-158625000D03*
X245550000Y-160500000D03*
%TD*%
%TO.C,Q20*%
X286500000Y-158625000D03*
X284600000Y-158625000D03*
X285550000Y-160500000D03*
%TD*%
D12*
%TO.C,R4*%
X101150000Y-158250000D03*
X99500000Y-158250000D03*
%TD*%
D13*
%TO.C,LD4*%
X124750000Y-163250000D03*
D14*
X130750000Y-163250000D03*
D15*
X127750000Y-169750000D03*
%TD*%
D16*
%TO.C,Q34*%
X178324999Y-107625000D03*
X180224999Y-107625000D03*
X179274999Y-105750000D03*
%TD*%
D12*
%TO.C,R38*%
X271150000Y-158250000D03*
X269500000Y-158250000D03*
%TD*%
%TO.C,R65*%
X145325000Y-105500000D03*
X143675000Y-105500000D03*
%TD*%
D10*
%TO.C,R23*%
X189500000Y-160750000D03*
X191150000Y-160750000D03*
%TD*%
D16*
%TO.C,Q48*%
X318824999Y-107625000D03*
X320724999Y-107625000D03*
X319774999Y-105750000D03*
%TD*%
%TO.C,Q44*%
X278824999Y-107625000D03*
X280724999Y-107625000D03*
X279774999Y-105750000D03*
%TD*%
D13*
%TO.C,LD27*%
X110025001Y-103000000D03*
D14*
X104025001Y-103000000D03*
D15*
X107025001Y-96500000D03*
%TD*%
D13*
%TO.C,LD35*%
X190075001Y-103000000D03*
D14*
X184075001Y-103000000D03*
D15*
X187075001Y-96500000D03*
%TD*%
D13*
%TO.C,LD34*%
X180075000Y-103000000D03*
D14*
X174075000Y-103000000D03*
D15*
X177075000Y-96500000D03*
%TD*%
D10*
%TO.C,R17*%
X159500000Y-160750000D03*
X161150000Y-160750000D03*
%TD*%
D16*
%TO.C,Q42*%
X258824999Y-107625000D03*
X260724999Y-107625000D03*
X259774999Y-105750000D03*
%TD*%
D13*
%TO.C,LD6*%
X144750000Y-163250000D03*
D14*
X150750000Y-163250000D03*
D15*
X147750000Y-169750000D03*
%TD*%
D12*
%TO.C,R6*%
X111150000Y-158250000D03*
X109500000Y-158250000D03*
%TD*%
%TO.C,R32*%
X241150000Y-158250000D03*
X239500000Y-158250000D03*
%TD*%
D10*
%TO.C,R5*%
X99500000Y-160750000D03*
X101150000Y-160750000D03*
%TD*%
%TO.C,R49*%
X319500000Y-160750000D03*
X321150000Y-160750000D03*
%TD*%
D17*
%TO.C,C2*%
X82950000Y-151750000D03*
X84500000Y-151750000D03*
%TD*%
%TO.C,C3*%
X82700000Y-138500000D03*
X84250000Y-138500000D03*
%TD*%
D13*
%TO.C,LD16*%
X244750000Y-163250000D03*
D14*
X250750000Y-163250000D03*
D15*
X247750000Y-169750000D03*
%TD*%
D10*
%TO.C,R84*%
X244175000Y-108000000D03*
X245825000Y-108000000D03*
%TD*%
D16*
%TO.C,Q46*%
X298824999Y-107625000D03*
X300724999Y-107625000D03*
X299774999Y-105750000D03*
%TD*%
D18*
%TO.C,C5*%
X257750000Y-134975000D03*
X257750000Y-136525000D03*
%TD*%
D11*
%TO.C,Q21*%
X296500000Y-158625000D03*
X294600000Y-158625000D03*
X295550000Y-160500000D03*
%TD*%
D13*
%TO.C,LD33*%
X170075000Y-103000000D03*
D14*
X164075000Y-103000000D03*
D15*
X167075000Y-96500000D03*
%TD*%
D12*
%TO.C,R24*%
X201150000Y-158250000D03*
X199500000Y-158250000D03*
%TD*%
D11*
%TO.C,Q22*%
X306500000Y-158625000D03*
X304600000Y-158625000D03*
X305550000Y-160500000D03*
%TD*%
D16*
%TO.C,Q40*%
X238624999Y-107625000D03*
X240524999Y-107625000D03*
X239574999Y-105750000D03*
%TD*%
D10*
%TO.C,R78*%
X213925000Y-108000000D03*
X215575000Y-108000000D03*
%TD*%
%TO.C,R47*%
X309500000Y-160750000D03*
X311150000Y-160750000D03*
%TD*%
D13*
%TO.C,LD25*%
X334750000Y-163250000D03*
D14*
X340750000Y-163250000D03*
D15*
X337750000Y-169750000D03*
%TD*%
D12*
%TO.C,R36*%
X261150000Y-158250000D03*
X259500000Y-158250000D03*
%TD*%
%TO.C,R26*%
X211150000Y-158250000D03*
X209500000Y-158250000D03*
%TD*%
%TO.C,R71*%
X175325000Y-105500000D03*
X173675000Y-105500000D03*
%TD*%
D13*
%TO.C,LD31*%
X150075000Y-103000000D03*
D14*
X144075000Y-103000000D03*
D15*
X147075000Y-96500000D03*
%TD*%
D10*
%TO.C,R45*%
X299500000Y-160750000D03*
X301150000Y-160750000D03*
%TD*%
D13*
%TO.C,LD43*%
X270575000Y-103000000D03*
D14*
X264575000Y-103000000D03*
D15*
X267575000Y-96500000D03*
%TD*%
D13*
%TO.C,LD19*%
X274750000Y-163250000D03*
D14*
X280750000Y-163250000D03*
D15*
X277750000Y-169750000D03*
%TD*%
D11*
%TO.C,Q18*%
X266500000Y-158625000D03*
X264600000Y-158625000D03*
X265550000Y-160500000D03*
%TD*%
D10*
%TO.C,R13*%
X139500000Y-160750000D03*
X141150000Y-160750000D03*
%TD*%
%TO.C,R92*%
X284175000Y-108000000D03*
X285825000Y-108000000D03*
%TD*%
%TO.C,R60*%
X123675001Y-108000000D03*
X125325001Y-108000000D03*
%TD*%
%TO.C,R9*%
X119500000Y-160750000D03*
X121150000Y-160750000D03*
%TD*%
D11*
%TO.C,Q15*%
X236500000Y-158625000D03*
X234600000Y-158625000D03*
X235550000Y-160500000D03*
%TD*%
D16*
%TO.C,Q31*%
X148324999Y-107625000D03*
X150224999Y-107625000D03*
X149274999Y-105750000D03*
%TD*%
D13*
%TO.C,LD14*%
X224750000Y-163250000D03*
D14*
X230750000Y-163250000D03*
D15*
X227750000Y-169750000D03*
%TD*%
D13*
%TO.C,LD36*%
X200125001Y-103000000D03*
D14*
X194125001Y-103000000D03*
D15*
X197125001Y-96500000D03*
%TD*%
D10*
%TO.C,R41*%
X279500000Y-160750000D03*
X281150000Y-160750000D03*
%TD*%
D19*
%TO.C,R2*%
X266750000Y-137075000D03*
X266750000Y-135425000D03*
%TD*%
D17*
%TO.C,C4*%
X82700000Y-134750000D03*
X84250000Y-134750000D03*
%TD*%
D16*
%TO.C,Q47*%
X308824999Y-107625000D03*
X310724999Y-107625000D03*
X309774999Y-105750000D03*
%TD*%
D10*
%TO.C,R56*%
X103625001Y-108000000D03*
X105275001Y-108000000D03*
%TD*%
D13*
%TO.C,LD46*%
X300575000Y-103000000D03*
D14*
X294575000Y-103000000D03*
D15*
X297575000Y-96500000D03*
%TD*%
D16*
%TO.C,Q33*%
X168324999Y-107625000D03*
X170224999Y-107625000D03*
X169274999Y-105750000D03*
%TD*%
D10*
%TO.C,R88*%
X264175000Y-108000000D03*
X265825000Y-108000000D03*
%TD*%
D16*
%TO.C,Q38*%
X218574999Y-107625000D03*
X220474999Y-107625000D03*
X219524999Y-105750000D03*
%TD*%
D13*
%TO.C,LD40*%
X240375000Y-103000000D03*
D14*
X234375000Y-103000000D03*
D15*
X237375000Y-96500000D03*
%TD*%
D12*
%TO.C,R99*%
X315825000Y-105500000D03*
X314175000Y-105500000D03*
%TD*%
D13*
%TO.C,LD22*%
X304750000Y-163250000D03*
D14*
X310750000Y-163250000D03*
D15*
X307750000Y-169750000D03*
%TD*%
D10*
%TO.C,R29*%
X219500000Y-160750000D03*
X221150000Y-160750000D03*
%TD*%
D13*
%TO.C,LD28*%
X120025001Y-103000000D03*
D14*
X114025001Y-103000000D03*
D15*
X117025001Y-96500000D03*
%TD*%
D12*
%TO.C,R69*%
X165325000Y-105500000D03*
X163675000Y-105500000D03*
%TD*%
D11*
%TO.C,Q25*%
X336500000Y-158625000D03*
X334600000Y-158625000D03*
X335550000Y-160500000D03*
%TD*%
D12*
%TO.C,R16*%
X161150000Y-158250000D03*
X159500000Y-158250000D03*
%TD*%
D10*
%TO.C,R96*%
X304175000Y-108000000D03*
X305825000Y-108000000D03*
%TD*%
D15*
%TO.C,REF\u002A\u002A*%
X351750000Y-168000000D03*
%TD*%
D13*
%TO.C,LD47*%
X310575000Y-103000000D03*
D14*
X304575000Y-103000000D03*
D15*
X307575000Y-96500000D03*
%TD*%
D10*
%TO.C,R72*%
X183675001Y-108000000D03*
X185325001Y-108000000D03*
%TD*%
D11*
%TO.C,Q11*%
X196500000Y-158625000D03*
X194600000Y-158625000D03*
X195550000Y-160500000D03*
%TD*%
D12*
%TO.C,R22*%
X191150000Y-158250000D03*
X189500000Y-158250000D03*
%TD*%
D20*
%TO.C,Expander*%
X258856543Y-131627557D03*
X259316163Y-132087177D03*
X259775782Y-132546796D03*
X260235402Y-133006415D03*
X260695021Y-133466035D03*
X261154640Y-133925654D03*
X261614260Y-134385274D03*
D21*
X262869374Y-134385274D03*
X263328994Y-133925654D03*
X263788613Y-133466035D03*
X264248232Y-133006415D03*
X264707852Y-132546796D03*
X265167471Y-132087177D03*
X265627091Y-131627557D03*
D20*
X265627091Y-130372443D03*
X265167471Y-129912823D03*
X264707852Y-129453204D03*
X264248232Y-128993585D03*
X263788613Y-128533965D03*
X263328994Y-128074346D03*
X262869374Y-127614726D03*
D21*
X261614260Y-127614726D03*
X261154640Y-128074346D03*
X260695021Y-128533965D03*
X260235402Y-128993585D03*
X259775782Y-129453204D03*
X259316163Y-129912823D03*
X258856543Y-130372443D03*
D22*
X262241817Y-131000000D03*
%TD*%
D11*
%TO.C,Q24*%
X326500000Y-158625000D03*
X324600000Y-158625000D03*
X325550000Y-160500000D03*
%TD*%
D12*
%TO.C,R12*%
X141150000Y-158250000D03*
X139500000Y-158250000D03*
%TD*%
D13*
%TO.C,LD11*%
X194750000Y-163250000D03*
D14*
X200750000Y-163250000D03*
D15*
X197750000Y-169750000D03*
%TD*%
D10*
%TO.C,R35*%
X249500000Y-160750000D03*
X251150000Y-160750000D03*
%TD*%
%TO.C,R37*%
X259500000Y-160750000D03*
X261150000Y-160750000D03*
%TD*%
D15*
%TO.C,REF\u002A\u002A*%
X351750000Y-97750000D03*
%TD*%
D12*
%TO.C,R20*%
X181150000Y-158250000D03*
X179500000Y-158250000D03*
%TD*%
D10*
%TO.C,R11*%
X129500000Y-160750000D03*
X131150000Y-160750000D03*
%TD*%
%TO.C,R74*%
X193725001Y-108000000D03*
X195375001Y-108000000D03*
%TD*%
D13*
%TO.C,LD12*%
X204750000Y-163250000D03*
D14*
X210750000Y-163250000D03*
D15*
X207750000Y-169750000D03*
%TD*%
D13*
%TO.C,LD9*%
X174750000Y-163250000D03*
D14*
X180750000Y-163250000D03*
D15*
X177750000Y-169750000D03*
%TD*%
D13*
%TO.C,LD20*%
X284750000Y-163250000D03*
D14*
X290750000Y-163250000D03*
D15*
X287750000Y-169750000D03*
%TD*%
D10*
%TO.C,R54*%
X93625001Y-108000000D03*
X95275001Y-108000000D03*
%TD*%
D19*
%TO.C,R3*%
X268750000Y-137075000D03*
X268750000Y-135425000D03*
%TD*%
D10*
%TO.C,R7*%
X109500000Y-160750000D03*
X111150000Y-160750000D03*
%TD*%
%TO.C,R90*%
X274175000Y-108000000D03*
X275825000Y-108000000D03*
%TD*%
D12*
%TO.C,R10*%
X131150000Y-158250000D03*
X129500000Y-158250000D03*
%TD*%
D16*
%TO.C,Q50*%
X338824999Y-107625000D03*
X340724999Y-107625000D03*
X339774999Y-105750000D03*
%TD*%
%TO.C,Q36*%
X198375000Y-107625000D03*
X200275000Y-107625000D03*
X199325000Y-105750000D03*
%TD*%
D10*
%TO.C,R53*%
X339500000Y-160750000D03*
X341150000Y-160750000D03*
%TD*%
D12*
%TO.C,R40*%
X281150000Y-158250000D03*
X279500000Y-158250000D03*
%TD*%
%TO.C,R55*%
X95275001Y-105500000D03*
X93625001Y-105500000D03*
%TD*%
D23*
%TO.C,5V*%
X78750000Y-148250000D03*
D24*
X72750000Y-148250000D03*
D25*
X75750000Y-152950000D03*
%TD*%
D12*
%TO.C,R44*%
X301150000Y-158250000D03*
X299500000Y-158250000D03*
%TD*%
D16*
%TO.C,Q35*%
X188325000Y-107625000D03*
X190225000Y-107625000D03*
X189275000Y-105750000D03*
%TD*%
D12*
%TO.C,R57*%
X105275001Y-105500000D03*
X103625001Y-105500000D03*
%TD*%
D13*
%TO.C,LD1*%
X94750000Y-163250000D03*
D14*
X100750000Y-163250000D03*
D15*
X97750000Y-169750000D03*
%TD*%
D13*
%TO.C,LD2*%
X104750000Y-163250000D03*
D14*
X110750000Y-163250000D03*
D15*
X107750000Y-169750000D03*
%TD*%
D13*
%TO.C,LD24*%
X324750000Y-163250000D03*
D14*
X330750000Y-163250000D03*
D15*
X327750000Y-169750000D03*
%TD*%
D11*
%TO.C,Q4*%
X126500000Y-158625000D03*
X124600000Y-158625000D03*
X125550000Y-160500000D03*
%TD*%
%TO.C,Q8*%
X166500000Y-158625000D03*
X164600000Y-158625000D03*
X165550000Y-160500000D03*
%TD*%
D10*
%TO.C,R43*%
X289500000Y-160750000D03*
X291150000Y-160750000D03*
%TD*%
D16*
%TO.C,Q27*%
X108275000Y-107625000D03*
X110175000Y-107625000D03*
X109225000Y-105750000D03*
%TD*%
D15*
%TO.C,REF\u002A\u002A*%
X84000000Y-97750000D03*
%TD*%
D17*
%TO.C,C1*%
X82950000Y-149375000D03*
X84500000Y-149375000D03*
%TD*%
D10*
%TO.C,R80*%
X223925000Y-108000000D03*
X225575000Y-108000000D03*
%TD*%
%TO.C,R51*%
X329500000Y-160750000D03*
X331150000Y-160750000D03*
%TD*%
D13*
%TO.C,LD5*%
X134750000Y-163250000D03*
D14*
X140750000Y-163250000D03*
D15*
X137750000Y-169750000D03*
%TD*%
D10*
%TO.C,R39*%
X269500000Y-160750000D03*
X271150000Y-160750000D03*
%TD*%
%TO.C,R98*%
X314175000Y-108000000D03*
X315825000Y-108000000D03*
%TD*%
D12*
%TO.C,R52*%
X341150000Y-158250000D03*
X339500000Y-158250000D03*
%TD*%
%TO.C,R97*%
X305825000Y-105500000D03*
X304175000Y-105500000D03*
%TD*%
D13*
%TO.C,LD32*%
X160075000Y-103000000D03*
D14*
X154075000Y-103000000D03*
D15*
X157075000Y-96500000D03*
%TD*%
D16*
%TO.C,Q28*%
X118275000Y-107625000D03*
X120175000Y-107625000D03*
X119225000Y-105750000D03*
%TD*%
%TO.C,Q29*%
X128325000Y-107625000D03*
X130225000Y-107625000D03*
X129275000Y-105750000D03*
%TD*%
D12*
%TO.C,R48*%
X321150000Y-158250000D03*
X319500000Y-158250000D03*
%TD*%
%TO.C,R63*%
X135325000Y-105500000D03*
X133675000Y-105500000D03*
%TD*%
D10*
%TO.C,R15*%
X149500000Y-160750000D03*
X151150000Y-160750000D03*
%TD*%
D13*
%TO.C,LD39*%
X230325000Y-103000000D03*
D14*
X224325000Y-103000000D03*
D15*
X227325000Y-96500000D03*
%TD*%
D10*
%TO.C,R62*%
X133675000Y-108000000D03*
X135325000Y-108000000D03*
%TD*%
D13*
%TO.C,LD41*%
X250575000Y-103000000D03*
D14*
X244575000Y-103000000D03*
D15*
X247575000Y-96500000D03*
%TD*%
D11*
%TO.C,Q9*%
X176500000Y-158625000D03*
X174600000Y-158625000D03*
X175550000Y-160500000D03*
%TD*%
D13*
%TO.C,LD45*%
X290575000Y-103000000D03*
D14*
X284575000Y-103000000D03*
D15*
X287575000Y-96500000D03*
%TD*%
D10*
%TO.C,R27*%
X209500000Y-160750000D03*
X211150000Y-160750000D03*
%TD*%
D11*
%TO.C,Q7*%
X156500000Y-158625000D03*
X154600000Y-158625000D03*
X155550000Y-160500000D03*
%TD*%
D16*
%TO.C,Q37*%
X208375000Y-107625000D03*
X210275000Y-107625000D03*
X209325000Y-105750000D03*
%TD*%
D12*
%TO.C,R28*%
X221150000Y-158250000D03*
X219500000Y-158250000D03*
%TD*%
D10*
%TO.C,R100*%
X324175000Y-108000000D03*
X325825000Y-108000000D03*
%TD*%
D13*
%TO.C,LD50*%
X340575000Y-103000000D03*
D14*
X334575000Y-103000000D03*
D15*
X337575000Y-96500000D03*
%TD*%
D12*
%TO.C,R59*%
X115275001Y-105500000D03*
X113625001Y-105500000D03*
%TD*%
D23*
%TO.C,9V*%
X78750000Y-134250000D03*
D24*
X72750000Y-134250000D03*
D25*
X75750000Y-138950000D03*
%TD*%
D11*
%TO.C,Q3*%
X116500000Y-158625000D03*
X114600000Y-158625000D03*
X115550000Y-160500000D03*
%TD*%
%TO.C,Q5*%
X136500000Y-158625000D03*
X134600000Y-158625000D03*
X135550000Y-160500000D03*
%TD*%
%TO.C,Q23*%
X316500000Y-158625000D03*
X314600000Y-158625000D03*
X315550000Y-160500000D03*
%TD*%
D12*
%TO.C,R93*%
X285825000Y-105500000D03*
X284175000Y-105500000D03*
%TD*%
%TO.C,R1*%
X268500000Y-133500000D03*
X266850000Y-133500000D03*
%TD*%
D16*
%TO.C,Q43*%
X268824999Y-107625000D03*
X270724999Y-107625000D03*
X269774999Y-105750000D03*
%TD*%
D12*
%TO.C,R87*%
X255825000Y-105500000D03*
X254175000Y-105500000D03*
%TD*%
D10*
%TO.C,R58*%
X113625001Y-108000000D03*
X115275001Y-108000000D03*
%TD*%
D12*
%TO.C,R42*%
X291150000Y-158250000D03*
X289500000Y-158250000D03*
%TD*%
D13*
%TO.C,LD42*%
X260575000Y-103000000D03*
D14*
X254575000Y-103000000D03*
D15*
X257575000Y-96500000D03*
%TD*%
D13*
%TO.C,LD30*%
X140075000Y-103000000D03*
D14*
X134075000Y-103000000D03*
D15*
X137075000Y-96500000D03*
%TD*%
D10*
%TO.C,R19*%
X169500000Y-160750000D03*
X171150000Y-160750000D03*
%TD*%
D11*
%TO.C,Q17*%
X256500000Y-158625000D03*
X254600000Y-158625000D03*
X255550000Y-160500000D03*
%TD*%
D16*
%TO.C,Q49*%
X328824999Y-107625000D03*
X330724999Y-107625000D03*
X329774999Y-105750000D03*
%TD*%
D12*
%TO.C,R81*%
X225575000Y-105500000D03*
X223925000Y-105500000D03*
%TD*%
D26*
%TO.C,Printer*%
X77500000Y-124000000D03*
D27*
X75000000Y-124000000D03*
X72500000Y-124000000D03*
X70000000Y-124000000D03*
X67500000Y-124000000D03*
%TD*%
D28*
%TO.C,F1*%
X82937500Y-146500000D03*
X84512500Y-146500000D03*
%TD*%
D13*
%TO.C,LD29*%
X130075001Y-103000000D03*
D14*
X124075001Y-103000000D03*
D15*
X127075001Y-96500000D03*
%TD*%
D10*
%TO.C,R76*%
X203725001Y-108000000D03*
X205375001Y-108000000D03*
%TD*%
D13*
%TO.C,LD3*%
X114750000Y-163250000D03*
D14*
X120750000Y-163250000D03*
D15*
X117750000Y-169750000D03*
%TD*%
D10*
%TO.C,R102*%
X334175000Y-108000000D03*
X335825000Y-108000000D03*
%TD*%
D11*
%TO.C,Q1*%
X96500000Y-158625000D03*
X94600000Y-158625000D03*
X95550000Y-160500000D03*
%TD*%
D13*
%TO.C,LD13*%
X214750000Y-163250000D03*
D14*
X220750000Y-163250000D03*
D15*
X217750000Y-169750000D03*
%TD*%
D12*
%TO.C,R83*%
X235625000Y-105500000D03*
X233975000Y-105500000D03*
%TD*%
D13*
%TO.C,LD48*%
X320575000Y-103000000D03*
D14*
X314575000Y-103000000D03*
D15*
X317575000Y-96500000D03*
%TD*%
D12*
%TO.C,R73*%
X185325001Y-105500000D03*
X183675001Y-105500000D03*
%TD*%
D10*
%TO.C,R64*%
X143675000Y-108000000D03*
X145325000Y-108000000D03*
%TD*%
D12*
%TO.C,R89*%
X265825000Y-105500000D03*
X264175000Y-105500000D03*
%TD*%
D13*
%TO.C,LD21*%
X294750000Y-163250000D03*
D14*
X300750000Y-163250000D03*
D15*
X297750000Y-169750000D03*
%TD*%
D10*
%TO.C,R66*%
X153675000Y-108000000D03*
X155325000Y-108000000D03*
%TD*%
D13*
%TO.C,LD8*%
X164750000Y-163250000D03*
D14*
X170750000Y-163250000D03*
D15*
X167750000Y-169750000D03*
%TD*%
D12*
%TO.C,R14*%
X151150000Y-158250000D03*
X149500000Y-158250000D03*
%TD*%
%TO.C,R61*%
X125325001Y-105500000D03*
X123675001Y-105500000D03*
%TD*%
D26*
%TO.C,Serial Com*%
X72750000Y-114500000D03*
D27*
X70250000Y-114500000D03*
X67750000Y-114500000D03*
%TD*%
D12*
%TO.C,R103*%
X335825000Y-105500000D03*
X334175000Y-105500000D03*
%TD*%
%TO.C,R34*%
X251150000Y-158250000D03*
X249500000Y-158250000D03*
%TD*%
%TO.C,R75*%
X195375001Y-105500000D03*
X193725001Y-105500000D03*
%TD*%
D10*
%TO.C,R70*%
X173675000Y-108000000D03*
X175325000Y-108000000D03*
%TD*%
D12*
%TO.C,R79*%
X215575000Y-105500000D03*
X213925000Y-105500000D03*
%TD*%
D11*
%TO.C,Q10*%
X186500000Y-158625000D03*
X184600000Y-158625000D03*
X185550000Y-160500000D03*
%TD*%
D12*
%TO.C,R77*%
X205375001Y-105500000D03*
X203725001Y-105500000D03*
%TD*%
D13*
%TO.C,LD10*%
X184750000Y-163250000D03*
D14*
X190750000Y-163250000D03*
D15*
X187750000Y-169750000D03*
%TD*%
D13*
%TO.C,LD23*%
X314750000Y-163250000D03*
D14*
X320750000Y-163250000D03*
D15*
X317750000Y-169750000D03*
%TD*%
D10*
%TO.C,R82*%
X233975000Y-108000000D03*
X235625000Y-108000000D03*
%TD*%
D13*
%TO.C,LD7*%
X154750000Y-163250000D03*
D14*
X160750000Y-163250000D03*
D15*
X157750000Y-169750000D03*
%TD*%
D13*
%TO.C,LD37*%
X210125001Y-103000000D03*
D14*
X204125001Y-103000000D03*
D15*
X207125001Y-96500000D03*
%TD*%
D11*
%TO.C,Q14*%
X226500000Y-158625000D03*
X224600000Y-158625000D03*
X225550000Y-160500000D03*
%TD*%
%TO.C,Q2*%
X106500000Y-158625000D03*
X104600000Y-158625000D03*
X105550000Y-160500000D03*
%TD*%
D13*
%TO.C,LD49*%
X330575000Y-103000000D03*
D14*
X324575000Y-103000000D03*
D15*
X327575000Y-96500000D03*
%TD*%
D13*
%TO.C,LD15*%
X234750000Y-163250000D03*
D14*
X240750000Y-163250000D03*
D15*
X237750000Y-169750000D03*
%TD*%
D12*
%TO.C,R46*%
X311150000Y-158250000D03*
X309500000Y-158250000D03*
%TD*%
%TO.C,R91*%
X275825000Y-105500000D03*
X274175000Y-105500000D03*
%TD*%
D13*
%TO.C,LD18*%
X264750000Y-163250000D03*
D14*
X270750000Y-163250000D03*
D15*
X267750000Y-169750000D03*
%TD*%
D16*
%TO.C,Q41*%
X248824999Y-107625000D03*
X250724999Y-107625000D03*
X249774999Y-105750000D03*
%TD*%
D10*
%TO.C,R33*%
X239500000Y-160750000D03*
X241150000Y-160750000D03*
%TD*%
%TO.C,R21*%
X179500000Y-160750000D03*
X181150000Y-160750000D03*
%TD*%
D29*
%TO.C,Teensy*%
X183860000Y-142490000D03*
D30*
X186400000Y-142490000D03*
X188940000Y-142490000D03*
X191480000Y-142490000D03*
X194020000Y-142490000D03*
X196560000Y-142490000D03*
X199100000Y-142490000D03*
X201640000Y-142490000D03*
X204180000Y-142490000D03*
X206720000Y-142490000D03*
X209260000Y-142490000D03*
X211800000Y-142490000D03*
X214340000Y-142490000D03*
X216880000Y-142490000D03*
X219420000Y-142490000D03*
X221960000Y-142490000D03*
X224500000Y-142490000D03*
X227040000Y-142490000D03*
X229580000Y-142490000D03*
X232120000Y-142490000D03*
X234660000Y-142490000D03*
X237200000Y-142490000D03*
X239740000Y-142490000D03*
X242280000Y-142490000D03*
X242280000Y-127250000D03*
X239740000Y-127250000D03*
X237200000Y-127250000D03*
X234660000Y-127250000D03*
X232120000Y-127250000D03*
X229580000Y-127250000D03*
X227040000Y-127250000D03*
X224500000Y-127250000D03*
X221960000Y-127250000D03*
X219420000Y-127250000D03*
X216880000Y-127250000D03*
X214340000Y-127250000D03*
X211800000Y-127250000D03*
X209260000Y-127250000D03*
X206720000Y-127250000D03*
X204180000Y-127250000D03*
X201640000Y-127250000D03*
X199100000Y-127250000D03*
X196560000Y-127250000D03*
X194020000Y-127250000D03*
X191480000Y-127250000D03*
X188940000Y-127250000D03*
X186400000Y-127250000D03*
X183860000Y-127250000D03*
%TD*%
D10*
%TO.C,R68*%
X163675000Y-108000000D03*
X165325000Y-108000000D03*
%TD*%
D16*
%TO.C,Q39*%
X228574999Y-107625000D03*
X230474999Y-107625000D03*
X229524999Y-105750000D03*
%TD*%
D15*
%TO.C,REF\u002A\u002A*%
X83750000Y-168000000D03*
%TD*%
D11*
%TO.C,Q19*%
X276500000Y-158625000D03*
X274600000Y-158625000D03*
X275550000Y-160500000D03*
%TD*%
D12*
%TO.C,R101*%
X325825000Y-105500000D03*
X324175000Y-105500000D03*
%TD*%
D13*
%TO.C,LD38*%
X220325000Y-103000000D03*
D14*
X214325000Y-103000000D03*
D15*
X217325000Y-96500000D03*
%TD*%
D12*
%TO.C,R50*%
X331150000Y-158250000D03*
X329500000Y-158250000D03*
%TD*%
D10*
%TO.C,R25*%
X199500000Y-160750000D03*
X201150000Y-160750000D03*
%TD*%
D13*
%TO.C,LD26*%
X100025001Y-103000000D03*
D14*
X94025001Y-103000000D03*
D15*
X97025001Y-96500000D03*
%TD*%
D16*
%TO.C,Q32*%
X158324999Y-107625000D03*
X160224999Y-107625000D03*
X159274999Y-105750000D03*
%TD*%
D12*
%TO.C,R18*%
X171150000Y-158250000D03*
X169500000Y-158250000D03*
%TD*%
D10*
%TO.C,R31*%
X229500000Y-160750000D03*
X231150000Y-160750000D03*
%TD*%
D12*
%TO.C,R95*%
X295825000Y-105500000D03*
X294175000Y-105500000D03*
%TD*%
D10*
%TO.C,R94*%
X294175000Y-108000000D03*
X295825000Y-108000000D03*
%TD*%
D16*
%TO.C,Q30*%
X138324999Y-107625000D03*
X140224999Y-107625000D03*
X139274999Y-105750000D03*
%TD*%
D11*
%TO.C,Q13*%
X216500000Y-158625000D03*
X214600000Y-158625000D03*
X215550000Y-160500000D03*
%TD*%
D12*
%TO.C,R8*%
X121150000Y-158250000D03*
X119500000Y-158250000D03*
%TD*%
%TO.C,R30*%
X231150000Y-158250000D03*
X229500000Y-158250000D03*
%TD*%
D16*
%TO.C,Q26*%
X98275000Y-107625000D03*
X100175000Y-107625000D03*
X99225000Y-105750000D03*
%TD*%
D12*
%TO.C,R85*%
X245825000Y-105500000D03*
X244175000Y-105500000D03*
%TD*%
D11*
%TO.C,Q12*%
X206500000Y-158625000D03*
X204600000Y-158625000D03*
X205550000Y-160500000D03*
%TD*%
%TO.C,Q6*%
X146500000Y-158625000D03*
X144600000Y-158625000D03*
X145550000Y-160500000D03*
%TD*%
D13*
%TO.C,LD44*%
X280575000Y-103000000D03*
D14*
X274575000Y-103000000D03*
D15*
X277575000Y-96500000D03*
%TD*%
D16*
%TO.C,Q45*%
X288824999Y-107625000D03*
X290724999Y-107625000D03*
X289774999Y-105750000D03*
%TD*%
D12*
%TO.C,R67*%
X155325000Y-105500000D03*
X153675000Y-105500000D03*
%TD*%
D13*
%TO.C,LD17*%
X254750000Y-163250000D03*
D14*
X260750000Y-163250000D03*
D15*
X257750000Y-169750000D03*
%TD*%
M02*
